<?xml version="1.0" encoding="UTF-8" standalone="no"?>
<svg
   width="12.075002"
   height="12.075005"
   viewBox="0 0 12.075002 12.075005"
   fill="none"
   version="1.1"
   id="svg1"
   sodipodi:docname="add-icon.svg"
   xmlns:inkscape="http://www.inkscape.org/namespaces/inkscape"
   xmlns:sodipodi="http://sodipodi.sourceforge.net/DTD/sodipodi-0.dtd"
   xmlns="http://www.w3.org/2000/svg"
   xmlns:svg="http://www.w3.org/2000/svg">
  <defs
     id="defs1" />
  <sodipodi:namedview
     id="namedview1"
     pagecolor="#ffffff"
     bordercolor="#000000"
     borderopacity="0.25"
     inkscape:showpageshadow="2"
     inkscape:pageopacity="0.0"
     inkscape:pagecheckerboard="0"
     inkscape:deskcolor="#d1d1d1" />
  <path
     fill-rule="evenodd"
     clip-rule="evenodd"
     d="m 6.037502,-1.4476776e-8 c 0.20885,0 0.40916,0.08297100447678 0.55684,0.230654004476776 0.14769,0.147681 0.23066,0.347991 0.23066,0.556851 V 5.250005 h 4.4625 c 0.2088,0 0.4092,0.08297 0.5568,0.23065 0.1477,0.14768 0.2307,0.34799 0.2307,0.55685 0,0.20885 -0.083,0.40916 -0.2307,0.55684 -0.1476,0.14768 -0.348,0.23066 -0.5568,0.23066 h -4.4625 v 4.4625 c 0,0.2088 -0.08297,0.4092 -0.23066,0.5568 -0.14768,0.1477 -0.34799,0.2307 -0.55684,0.2307 -0.20886,0 -0.40917,-0.083 -0.55685,-0.2307 -0.14768,-0.1476 -0.23065,-0.348 -0.23065,-0.5568 v -4.4625 H 0.7875 c -0.208856,0 -0.409164,-0.08298 -0.556847,-0.23066 C 0.082971,6.446665 0,6.246355 0,6.037505 0,5.828645 0.082971,5.628335 0.230653,5.480655 0.378336,5.332975 0.578644,5.250005 0.7875,5.250005 H 5.250002 V 0.78750499 c 0,-0.20886 0.08297,-0.40917 0.23065,-0.556851 C 5.628332,0.08297099 5.828642,-1.4476776e-8 6.037502,-1.4476776e-8 Z"
     fill="#0b132a"
     id="path1" />
</svg>
