<?xml version="1.0" encoding="UTF-8" standalone="no"?>
<svg
   width="13.000004"
   height="14.333352"
   viewBox="0 0 13.000004 14.333352"
   fill="none"
   version="1.1"
   id="svg11"
   sodipodi:docname="Calendarcalendar-icon.svg"
   xmlns:inkscape="http://www.inkscape.org/namespaces/inkscape"
   xmlns:sodipodi="http://sodipodi.sourceforge.net/DTD/sodipodi-0.dtd"
   xmlns="http://www.w3.org/2000/svg"
   xmlns:svg="http://www.w3.org/2000/svg">
  <defs
     id="defs11" />
  <sodipodi:namedview
     id="namedview11"
     pagecolor="#ffffff"
     bordercolor="#000000"
     borderopacity="0.25"
     inkscape:showpageshadow="2"
     inkscape:pageopacity="0.0"
     inkscape:pagecheckerboard="0"
     inkscape:deskcolor="#d1d1d1" />
  <path
     fill-rule="evenodd"
     clip-rule="evenodd"
     d="M 12.444204,5.936282 H 0.561524 c -0.276,0 -0.5,-0.224 -0.5,-0.5 0,-0.276 0.224,-0.5 0.5,-0.5 h 11.88268 c 0.276,0 0.5,0.224 0.5,0.5 0,0.276 -0.224,0.5 -0.5,0.5 z"
     fill="#4f5665"
     id="path1" />
  <path
     fill-rule="evenodd"
     clip-rule="evenodd"
     d="m 9.467514,8.539792 c -0.276,0 -0.50267,-0.224 -0.50267,-0.5 0,-0.276 0.22067,-0.5 0.49667,-0.5 h 0.006 c 0.27599,0 0.49999,0.224 0.49999,0.5 0,0.276 -0.224,0.5 -0.49999,0.5 z"
     fill="#4f5665"
     id="path2" />
  <path
     fill-rule="evenodd"
     clip-rule="evenodd"
     d="m 6.509014,8.539792 c -0.276,0 -0.50267,-0.224 -0.50267,-0.5 0,-0.276 0.22067,-0.5 0.49667,-0.5 h 0.006 c 0.276,0 0.5,0.224 0.5,0.5 0,0.276 -0.224,0.5 -0.5,0.5 z"
     fill="#4f5665"
     id="path3" />
  <path
     fill-rule="evenodd"
     clip-rule="evenodd"
     d="m 3.544834,8.539792 c -0.276,0 -0.50333,-0.224 -0.50333,-0.5 0,-0.276 0.22133,-0.5 0.49733,-0.5 h 0.006 c 0.276,0 0.5,0.224 0.5,0.5 0,0.276 -0.224,0.5 -0.5,0.5 z"
     fill="#4f5665"
     id="path4" />
  <path
     fill-rule="evenodd"
     clip-rule="evenodd"
     d="m 9.467514,11.130852 c -0.276,0 -0.50267,-0.224 -0.50267,-0.5 0,-0.276 0.22067,-0.5 0.49667,-0.5 h 0.006 c 0.27599,0 0.49999,0.224 0.49999,0.5 0,0.276 -0.224,0.5 -0.49999,0.5 z"
     fill="#4f5665"
     id="path5" />
  <path
     fill-rule="evenodd"
     clip-rule="evenodd"
     d="m 6.509014,11.130852 c -0.276,0 -0.50267,-0.224 -0.50267,-0.5 0,-0.276 0.22067,-0.5 0.49667,-0.5 h 0.006 c 0.276,0 0.5,0.224 0.5,0.5 0,0.276 -0.224,0.5 -0.5,0.5 z"
     fill="#4f5665"
     id="path6" />
  <path
     fill-rule="evenodd"
     clip-rule="evenodd"
     d="m 3.544834,11.130852 c -0.276,0 -0.50333,-0.224 -0.50333,-0.5 0,-0.276 0.22133,-0.5 0.49733,-0.5 h 0.006 c 0.276,0 0.5,0.224 0.5,0.5 0,0.276 -0.224,0.5 -0.5,0.5 z"
     fill="#4f5665"
     id="path7" />
  <path
     fill-rule="evenodd"
     clip-rule="evenodd"
     d="m 9.195804,3.194002 c -0.276,0 -0.5,-0.224 -0.5,-0.5 V 0.50000201 c 0,-0.276002 0.224,-0.500001997270355 0.5,-0.500001997270355 0.276,0 0.5,0.223999997270355 0.5,0.500001997270355 V 2.694002 c 0,0.276 -0.224,0.5 -0.5,0.5 z"
     fill="#4f5665"
     id="path8" />
  <path
     fill-rule="evenodd"
     clip-rule="evenodd"
     d="m 3.810054,3.194002 c -0.276,0 -0.5,-0.224 -0.5,-0.5 V 0.50000201 c 0,-0.276002 0.224,-0.500001997270355 0.5,-0.500001997270355 0.276,0 0.5,0.223999997270355 0.5,0.500001997270355 V 2.694002 c 0,0.276 -0.224,0.5 -0.5,0.5 z"
     fill="#4f5665"
     id="path9" />
  <mask
     id="mask0_3486_4"
     maskUnits="userSpaceOnUse"
     x="0"
     y="1"
     width="14"
     height="14">
    <path
       fill-rule="evenodd"
       clip-rule="evenodd"
       d="M 0.333496,1.71948 H 13.3335 V 15.0001 H 0.333496 Z"
       fill="#ffffff"
       id="path10" />
  </mask>
  <g
     mask="url(#mask0_3486_4)"
     id="g11"
     transform="translate(-0.333496,-0.66674799)">
    <path
       fill-rule="evenodd"
       clip-rule="evenodd"
       d="m 4.01416,2.71948 c -1.72866,0 -2.68066,0.922 -2.68066,2.596 v 6.03262 c 0,1.7107 0.952,2.652 2.68066,2.652 h 5.63867 c 1.72867,0 2.68067,-0.924 2.68067,-2.6013 V 5.31548 C 12.3362,4.49215 12.1148,3.85215 11.6755,3.41215 11.2235,2.95882 10.5268,2.71948 9.65883,2.71948 Z M 9.65283,15.0001 H 4.01416 c -2.27,0 -3.680664,-1.3993 -3.680664,-3.652 V 5.31548 c 0,-2.21866 1.410664,-3.596 3.680664,-3.596 h 5.64467 c 1.13937,0 2.08137,0.34134 2.72467,0.986 0.6247,0.62734 0.9533,1.52934 0.95,2.61134 v 6.08198 c 0,2.2213 -1.4107,3.6013 -3.68067,3.6013 z"
       fill="#4f5665"
       id="path11" />
  </g>
</svg>
