<svg width="46" height="46" viewBox="0 0 46 46" fill="none" xmlns="http://www.w3.org/2000/svg">
<path d="M8.16294 31.8043C6.01974 28.1914 5.26917 23.9204 6.05218 19.7932C6.83518 15.6661 9.0979 11.9667 12.4154 9.38981C15.733 6.81291 19.8771 5.53573 24.0697 5.79809C28.2622 6.06045 32.2148 7.8443 35.1852 10.8147C38.1556 13.7851 39.9395 17.7376 40.2019 21.9302C40.4643 26.1228 39.1871 30.2669 36.6102 33.5845C34.0333 36.902 30.334 39.1647 26.2068 39.9478C22.0797 40.7308 17.8086 39.9803 14.1957 37.8371L14.1958 37.8369L8.23794 39.5391C7.99145 39.6096 7.7306 39.6128 7.48244 39.5485C7.23428 39.4842 7.00783 39.3547 6.82655 39.1734C6.64528 38.9921 6.51578 38.7657 6.45148 38.5175C6.38717 38.2694 6.3904 38.0085 6.46083 37.762L8.16307 31.8042L8.16294 31.8043Z" stroke="#0B132A" stroke-linecap="round" stroke-linejoin="round"/>
<path d="M14.3747 25.1635C15.5656 25.1635 16.531 24.1981 16.531 23.0072C16.531 21.8163 15.5656 20.851 14.3747 20.851C13.1839 20.851 12.2185 21.8163 12.2185 23.0072C12.2185 24.1981 13.1839 25.1635 14.3747 25.1635Z" fill="#0B132A"/>
<path d="M23 25.1635C24.1909 25.1635 25.1562 24.1981 25.1562 23.0072C25.1562 21.8163 24.1909 20.851 23 20.851C21.8091 20.851 20.8438 21.8163 20.8438 23.0072C20.8438 24.1981 21.8091 25.1635 23 25.1635Z" fill="#0B132A"/>
<path d="M31.6253 25.1635C32.8161 25.1635 33.7815 24.1981 33.7815 23.0072C33.7815 21.8163 32.8161 20.851 31.6253 20.851C30.4344 20.851 29.469 21.8163 29.469 23.0072C29.469 24.1981 30.4344 25.1635 31.6253 25.1635Z" fill="#0B132A"/>
</svg>
