<?xml version="1.0" encoding="UTF-8" standalone="no"?>
<svg
   width="20"
   height="20"
   viewBox="0 0 20 20"
   fill="none"
   version="1.1"
   id="svg1"
   sodipodi:docname="bx_bxs-check-circlecheck-circle.svg"
   xmlns:inkscape="http://www.inkscape.org/namespaces/inkscape"
   xmlns:sodipodi="http://sodipodi.sourceforge.net/DTD/sodipodi-0.dtd"
   xmlns="http://www.w3.org/2000/svg"
   xmlns:svg="http://www.w3.org/2000/svg">
  <defs
     id="defs1" />
  <sodipodi:namedview
     id="namedview1"
     pagecolor="#ffffff"
     bordercolor="#000000"
     borderopacity="0.25"
     inkscape:showpageshadow="2"
     inkscape:pageopacity="0.0"
     inkscape:pagecheckerboard="0"
     inkscape:deskcolor="#d1d1d1" />
  <path
     d="M 10,-5.8779907e-8 C 4.486,-5.8779907e-8 0,4.4859999 0,9.9999996 0,15.514 4.486,20 10,20 15.514,20 20,15.514 20,9.9999996 20,4.4859999 15.514,-5.8779907e-8 10,-5.8779907e-8 Z M 8.001,14.413 4.99545,11.4139 C 4.6047,11.024 4.60391,10.3912 4.99369,10.0003 5.38371,9.6091996 6.01701,9.6084996 6.40793,9.9986996 L 7.999,11.587 12.586,6.9999999 c 0.3905,-0.39047 1.0235,-0.39047 1.414,0 0.3905,0.39047 0.3905,1.0234997 0,1.4139997 z"
     fill="#2fab73"
     id="path1" />
</svg>
