<?xml version="1.0" encoding="UTF-8" standalone="no"?>
<svg
   width="28"
   height="26"
   viewBox="0 0 28 26"
   fill="none"
   version="1.1"
   id="svg1"
   sodipodi:docname="Framecoffee-white-icon.svg"
   xmlns:inkscape="http://www.inkscape.org/namespaces/inkscape"
   xmlns:sodipodi="http://sodipodi.sourceforge.net/DTD/sodipodi-0.dtd"
   xmlns="http://www.w3.org/2000/svg"
   xmlns:svg="http://www.w3.org/2000/svg">
  <defs
     id="defs1" />
  <sodipodi:namedview
     id="namedview1"
     pagecolor="#ffffff"
     bordercolor="#000000"
     borderopacity="0.25"
     inkscape:showpageshadow="2"
     inkscape:pageopacity="0.0"
     inkscape:pagecheckerboard="0"
     inkscape:deskcolor="#d1d1d1" />
  <path
     d="M 23,8 H 1 C 0.73478,8 0.48043,8.1054 0.29289,8.2928998 0.10536,8.4803998 0,8.7347998 0,8.9999998 V 15 c 0.00299,1.7025 0.36708,3.385 1.06822,4.9364 C 1.76937,21.4878 2.79163,22.8728 4.0675,24 H 1 C 0.73478,24 0.48043,24.1054 0.29289,24.2929 0.10536,24.4804 0,24.7348 0,25 0,25.2652 0.10536,25.5196 0.29289,25.7071 0.48043,25.8946 0.73478,26 1,26 h 22 c 0.2652,0 0.5196,-0.1054 0.7071,-0.2929 C 23.8946,25.5196 24,25.2652 24,25 24,24.7348 23.8946,24.4804 23.7071,24.2929 23.5196,24.1054 23.2652,24 23,24 h -3.0675 c 1.5315,-1.3574 2.6929,-3.0818 3.375,-5.0112 1.2701,-0.0783 2.4626,-0.6379 3.3345,-1.5648 C 27.5139,16.497 27.9995,15.2725 28,14 V 13 C 28,11.6739 27.4732,10.4021 26.5355,9.4644998 25.5979,8.5267998 24.3261,8 23,8 Z m 3,6 c -4e-4,0.647 -0.21,1.2765 -0.5975,1.7946 C 25.015,16.3127 24.4705,16.6917 23.85,16.875 23.9491,16.2549 23.9993,15.628 24,15 v -4.8275 c 0.5848,0.2067 1.0911,0.5896 1.4492,1.096 C 25.8074,11.7749 25.9998,12.3798 26,13 Z M 11,5 V 1 C 11,0.73478003 11.1054,0.48043003 11.2929,0.29289003 11.4804,0.10536003 11.7348,2.9589843e-8 12,2.9589843e-8 12.2652,2.9589843e-8 12.5196,0.10536003 12.7071,0.29289003 12.8946,0.48043003 13,0.73478003 13,1 V 5 C 13,5.26522 12.8946,5.51957 12.7071,5.70711 12.5196,5.89464 12.2652,6 12,6 11.7348,6 11.4804,5.89464 11.2929,5.70711 11.1054,5.51957 11,5.26522 11,5 Z m 4,0 V 1 C 15,0.73478003 15.1054,0.48043003 15.2929,0.29289003 15.4804,0.10536003 15.7348,2.9589843e-8 16,2.9589843e-8 16.2652,2.9589843e-8 16.5196,0.10536003 16.7071,0.29289003 16.8946,0.48043003 17,0.73478003 17,1 V 5 C 17,5.26522 16.8946,5.51957 16.7071,5.70711 16.5196,5.89464 16.2652,6 16,6 15.7348,6 15.4804,5.89464 15.2929,5.70711 15.1054,5.51957 15,5.26522 15,5 Z M 7,5 V 1 C 7,0.73478003 7.1054,0.48043003 7.2929,0.29289003 7.4804,0.10536003 7.7348,2.9589843e-8 8,2.9589843e-8 8.2652,2.9589843e-8 8.5196,0.10536003 8.7071,0.29289003 8.8946,0.48043003 9,0.73478003 9,1 V 5 C 9,5.26522 8.8946,5.51957 8.7071,5.70711 8.5196,5.89464 8.2652,6 8,6 7.7348,6 7.4804,5.89464 7.2929,5.70711 7.1054,5.51957 7,5.26522 7,5 Z"
     fill="#ffffff"
     id="path1" />
</svg>
