<?xml version="1.0" encoding="UTF-8" standalone="no"?>
<svg
   width="10.382578"
   height="13.333384"
   viewBox="0 0 10.382578 13.333384"
   fill="none"
   version="1.1"
   id="svg1"
   sodipodi:docname="Vectorcup-icon.svg"
   xmlns:inkscape="http://www.inkscape.org/namespaces/inkscape"
   xmlns:sodipodi="http://sodipodi.sourceforge.net/DTD/sodipodi-0.dtd"
   xmlns="http://www.w3.org/2000/svg"
   xmlns:svg="http://www.w3.org/2000/svg">
  <defs
     id="defs1" />
  <sodipodi:namedview
     id="namedview1"
     pagecolor="#ffffff"
     bordercolor="#000000"
     borderopacity="0.25"
     inkscape:showpageshadow="2"
     inkscape:pageopacity="0.0"
     inkscape:pagecheckerboard="0"
     inkscape:deskcolor="#d1d1d1" />
  <path
     d="m 9.8587829,0.66670284 c -0.1871,-0.209231 -0.4162,-0.376724 -0.67234,-0.491584 -0.25614,-0.11486 -0.53359,-0.17451400174 -0.8143,-0.175082001741 h -6.36 C 1.7299129,-0.00167616 1.4505229,0.05636184 1.1923229,0.17033784 c -0.25819003,0.113975 -0.48934003,0.281306 -0.67825003,0.490993 -0.1889,0.209687 -0.331291,0.45697696 -0.417801,0.72562696 -0.08651,0.26865 -0.115181,0.55256 -0.084131,0.83308 L 1.0521429,11.553348 c 0.05438,0.4915 0.28887,0.9453 0.65821,1.2741 0.36934,0.3287 0.84736,0.5089 1.34179,0.5059 h 4.28 c 0.49443,0.003 0.97244,-0.1772 1.34179,-0.5059 0.36934,-0.3288 0.60385,-0.7826 0.65825,-1.2741 L 10.372183,2.2200378 c 0.0287,-0.28047 -0.0022,-0.56385 -0.0906,-0.83156 -0.0885,-0.2677 -0.2326,-0.51366996 -0.4228001,-0.72177496 z M 7.9921429,11.406748 c -0.01813,0.1638 -0.09629,0.3151 -0.21941,0.4246 -0.12311,0.1096 -0.28245,0.1697 -0.44726,0.1687 h -4.27333 c -0.16481,0.001 -0.32415,-0.0591 -0.44726,-0.1687 -0.12312,-0.1095 -0.20128,-0.2608 -0.21941,-0.4246 l -0.67333,-6.0733802 h 6.96 z m 0.82667,-7.4067102 h -7.25334 l -0.21333,-1.92667 c -0.0105,-0.09353 -0.00108,-0.18822 0.02765,-0.27784 0.02873,-0.08963 0.0761,-0.17216 0.13901,-0.24216 0.06233,-0.06906 0.13843,-0.12431 0.22339,-0.1622 0.08497,-0.03789 0.17692,-0.05758 0.26995,-0.0578 h 6.36 c 0.09303,2.2e-4 0.18498,0.01991 0.26995,0.0578 0.08496,0.03789 0.16105,0.09314 0.22338,0.1622 0.06291,0.07 0.11029,0.15253 0.13902,0.24216 0.02872,0.08962 0.03815,0.18431 0.02765,0.27784 z m -2.29334,6.6667102 c 0.17681,0 0.34638,-0.0703 0.47141,-0.1953 0.12502,-0.125 0.19526,-0.2946 0.19526,-0.4714 V 7.3333678 c 0,-0.17681 -0.07024,-0.34638 -0.19526,-0.4714 -0.12503,-0.12503 -0.2946,-0.19526 -0.47141,-0.19526 -0.17681,0 -0.34638,0.07023 -0.4714,0.19526 -0.12503,0.12502 -0.19526,0.29459 -0.19526,0.4714 v 2.6666802 c 0,0.1768 0.07023,0.3464 0.19526,0.4714 0.12502,0.125 0.29459,0.1953 0.4714,0.1953 z m -2.66666,0 c 0.17681,0 0.34638,-0.0703 0.4714,-0.1953 0.12502,-0.125 0.19526,-0.2946 0.19526,-0.4714 V 7.3333678 c 0,-0.17681 -0.07024,-0.34638 -0.19526,-0.4714 -0.12502,-0.12503 -0.29459,-0.19526 -0.4714,-0.19526 -0.17682,0 -0.34639,0.07023 -0.47141,0.19526 -0.12502,0.12502 -0.19526,0.29459 -0.19526,0.4714 v 2.6666802 c 0,0.1768 0.07024,0.3464 0.19526,0.4714 0.12502,0.125 0.29459,0.1953 0.47141,0.1953 z"
     fill="#4f5665"
     id="path1" />
</svg>
