<?xml version="1.0" encoding="UTF-8" standalone="no"?>
<svg
   width="16.00025"
   height="12"
   viewBox="0 0 16.00025 12"
   fill="none"
   version="1.1"
   id="svg1"
   sodipodi:docname="Vectoremail-icon.svg"
   xmlns:inkscape="http://www.inkscape.org/namespaces/inkscape"
   xmlns:sodipodi="http://sodipodi.sourceforge.net/DTD/sodipodi-0.dtd"
   xmlns="http://www.w3.org/2000/svg"
   xmlns:svg="http://www.w3.org/2000/svg">
  <defs
     id="defs1" />
  <sodipodi:namedview
     id="namedview1"
     pagecolor="#ffffff"
     bordercolor="#000000"
     borderopacity="0.25"
     inkscape:showpageshadow="2"
     inkscape:pageopacity="0.0"
     inkscape:pagecheckerboard="0"
     inkscape:deskcolor="#d1d1d1" />
  <path
     fill-rule="evenodd"
     clip-rule="evenodd"
     d="M 1.7501199,0 C 0.78362389,0 1.2198746e-4,0.7835 1.2198746e-4,1.75 v 0.73577 c -1.62899997e-4,0.00902 -1.62499997e-4,0.01804 0,0.02705 V 10.25 c 0,0.9665 0.78350090254,1.75 1.74999791254,1.75 H 14.2501 c 0.9665,0 1.75,-0.7835 1.75,-1.75 V 2.51265 c 2e-4,-0.00889 2e-4,-0.0178 0,-0.02671 V 1.75 C 16.0001,0.7835 15.2166,0 14.2501,0 Z M 14.5001,2.07029 V 1.75 c 0,-0.13807 -0.1119,-0.25 -0.25,-0.25 H 1.7501199 c -0.13807,0 -0.25,0.11193 -0.25,0.25 v 0.32029 l 6.5,3.81034 z M 1.5001199,3.80902 V 10.25 c 0,0.1381 0.11193,0.25 0.25,0.25 H 14.2501 c 0.1381,0 0.25,-0.1119 0.25,-0.25 V 3.80902 l -6.1206901,3.588 c -0.23422,0.1373 -0.52436,0.1373 -0.75858,0 z"
     fill="#4f5665"
     id="path1" />
</svg>
