<?xml version="1.0" encoding="UTF-8" standalone="no"?>
<svg
   width="20"
   height="20.000099"
   viewBox="0 0 20 20.000099"
   fill="none"
   version="1.1"
   id="svg4"
   sodipodi:docname="flat-color-icons_googlegoogle-logo.svg"
   xmlns:inkscape="http://www.inkscape.org/namespaces/inkscape"
   xmlns:sodipodi="http://sodipodi.sourceforge.net/DTD/sodipodi-0.dtd"
   xmlns="http://www.w3.org/2000/svg"
   xmlns:svg="http://www.w3.org/2000/svg">
  <defs
     id="defs4" />
  <sodipodi:namedview
     id="namedview4"
     pagecolor="#ffffff"
     bordercolor="#000000"
     borderopacity="0.25"
     inkscape:showpageshadow="2"
     inkscape:pageopacity="0.0"
     inkscape:pagecheckerboard="0"
     inkscape:deskcolor="#d1d1d1" />
  <path
     d="M 19.8055,8.0415 H 19 V 8 h -9 v 4 h 5.6515 C 14.827,14.3285 12.6115,16 10,16 6.6865,16 4,13.3135 4,10 4,6.6865 6.6865,4 10,4 c 1.5295,0 2.921,0.577 3.9805,1.5195 L 16.809,2.691 C 15.023,1.0265 12.634,0 10,0 4.4775,0 0,4.4775 0,10 0,15.5225 4.4775,20 10,20 15.5225,20 20,15.5225 20,10 20,9.3295 19.931,8.675 19.8055,8.0415 Z"
     fill="#ffc107"
     id="path1" />
  <path
     d="M 1.15283,5.3455 4.43833,7.755 C 5.32733,5.554 7.48033,4 9.9998,4 c 1.5295,0 2.921,0.577 3.9805,1.5195 L 16.8088,2.691 C 15.0228,1.0265 12.6338,0 9.9998,0 6.15883,0 2.82783,2.1685 1.15283,5.3455 Z"
     fill="#ff3d00"
     id="path2" />
  <path
     d="m 10.0002,20.0001 c 2.583,0 4.93,-0.9885 6.7045,-2.596 l -3.095,-2.619 c -1.0378,0.7892 -2.3058,1.216 -3.6095,1.215 -2.60104,0 -4.80954,-1.6585 -5.64154,-3.973 l -3.261,2.5125 c 1.655,3.2385 5.016,5.4605 8.90254,5.4605 z"
     fill="#4caf50"
     id="path3" />
  <path
     d="M 19.8055,8.0415 H 19 V 8 h -9 v 4 h 5.6515 c -0.3944,1.1082 -1.1048,2.0766 -2.0435,2.7855 l 0.0015,-0.001 3.095,2.619 C 16.4855,17.6025 20,15 20,10 20,9.3295 19.931,8.675 19.8055,8.0415 Z"
     fill="#1976d2"
     id="path4" />
</svg>
