<?xml version="1.0" encoding="UTF-8" standalone="no"?>
<svg
   width="33.600002"
   height="33.599998"
   viewBox="0 0 33.600002 33.599998"
   fill="none"
   version="1.1"
   id="svg3"
   sodipodi:docname="Instagraminstagram-icon.svg"
   xmlns:inkscape="http://www.inkscape.org/namespaces/inkscape"
   xmlns:sodipodi="http://sodipodi.sourceforge.net/DTD/sodipodi-0.dtd"
   xmlns="http://www.w3.org/2000/svg"
   xmlns:svg="http://www.w3.org/2000/svg">
  <sodipodi:namedview
     id="namedview3"
     pagecolor="#ffffff"
     bordercolor="#000000"
     borderopacity="0.25"
     inkscape:showpageshadow="2"
     inkscape:pageopacity="0.0"
     inkscape:pagecheckerboard="0"
     inkscape:deskcolor="#d1d1d1" />
  <circle
     cx="16.7999"
     cy="16.7999"
     r="16.7999"
     fill="#0b132a"
     id="circle1" />
  <path
     d="m 22.050001,16.8 c 0,1.3924 -0.5531,2.7277 -1.5377,3.7123 -0.9846,0.9846 -2.3199,1.5377 -3.7123,1.5377 -1.3924,0 -2.7277,-0.5531 -3.7123,-1.5377 -0.9846,-0.9846 -1.5377,-2.3199 -1.5377,-3.7123 0,-0.2992 0.0315,-0.5915 0.0857,-0.875 H 9.8000009 v 6.9948 c 0,0.4865 0.3937001,0.8802 0.8802001,0.8802 h 12.2413 c 0.2332,-5e-4 0.4566,-0.0934 0.6213,-0.2584 0.1647,-0.1651 0.2572,-0.3887 0.2572,-0.6218 V 15.925 h -1.8358 c 0.0543,0.2835 0.0858,0.5758 0.0858,0.875 z m -5.25,3.5 c 0.4597,-10e-5 0.915,-0.0908 1.3397,-0.2668 0.4247,-0.1761 0.8105,-0.434 1.1355,-0.7592 0.325,-0.3252 0.5828,-0.7112 0.7586,-1.136 0.1759,-0.4247 0.2663,-0.88 0.2662,-1.3397 -1e-4,-0.4598 -0.0908,-0.915 -0.2668,-1.3397 -0.1761,-0.4247 -0.434,-0.8106 -0.7592,-1.1356 -0.3252,-0.325 -0.7112,-0.5828 -1.136,-0.7586 -0.4247,-0.1758 -0.88,-0.2663 -1.3398,-0.2661 -0.9284,2e-4 -1.8188,0.3692 -2.4752,1.026 -0.6564,0.6567 -1.025,1.5472 -1.0248,2.4757 3e-4,0.9285 0.3693,1.8189 1.026,2.4752 0.6568,0.6564 1.5473,1.025 2.4758,1.0248 z m 4.2,-7.175 h 2.0982 c 0.1394,0 0.2732,-0.0553 0.3719,-0.1537 0.0987,-0.0984 0.1544,-0.2319 0.1549,-0.3713 v -2.0982 c 0,-0.1398 -0.0555,-0.2737 -0.1543,-0.3725 -0.0988,-0.0988 -0.2327,-0.1543 -0.3725,-0.1543 h -2.0982 c -0.1397,0 -0.2737,0.0555 -0.3725,0.1543 -0.0988,0.0988 -0.1543,0.2327 -0.1543,0.3725 V 12.6 c 0.0018,0.2888 0.238,0.525 0.5268,0.525 z M 16.800001,0 C 12.344401,0 8.0712009,1.76999 4.9206009,4.92061 1.7700009,8.0712 8.7280273e-7,12.3444 8.7280273e-7,16.8 8.7280273e-7,21.2556 1.7700009,25.5288 4.9206009,28.6794 8.0712009,31.83 12.344401,33.6 16.800001,33.6 c 2.2062,0 4.3908,-0.4345 6.4291,-1.2788 2.0383,-0.8443 3.8903,-2.0818 5.4503,-3.6418 1.56,-1.56 2.7975,-3.412 3.6418,-5.4503 0.8443,-2.0383 1.2788,-4.2229 1.2788,-6.4291 0,-2.2062 -0.4345,-4.3908 -1.2788,-6.4291 -0.8443,-2.0383 -2.0818,-3.8903 -3.6418,-5.45029 -1.56,-1.56003 -3.412,-2.79751 -5.4503,-3.64179 C 21.190801,0.43454 19.006201,0 16.800001,0 Z m 8.75,23.6058 c 0,1.0692 -0.875,1.9442 -1.9443,1.9442 H 9.9942009 c -1.0692,0 -1.9442,-0.875 -1.9442,-1.9442 V 9.9943 c 0,-1.0693 0.875,-1.9443 1.9442,-1.9443 H 23.605701 c 1.0693,0 1.9443,0.875 1.9443,1.9443 z"
     fill="#ff8906"
     id="path1" />
  <defs
     id="defs3" />
</svg>
