<?xml version="1.0" encoding="UTF-8" standalone="no"?>
<svg
   height="241.34639"
   version="1.1"
   viewBox="0 0 165.59642 241.34639"
   width="165.59642"
   id="svg4"
   sodipodi:docname="peep_human_person_avatar_icon_192371.svg"
   xmlns:inkscape="http://www.inkscape.org/namespaces/inkscape"
   xmlns:sodipodi="http://sodipodi.sourceforge.net/DTD/sodipodi-0.dtd"
   xmlns="http://www.w3.org/2000/svg"
   xmlns:svg="http://www.w3.org/2000/svg">
  <defs
     id="defs4" />
  <sodipodi:namedview
     id="namedview4"
     pagecolor="#ffffff"
     bordercolor="#000000"
     borderopacity="0.25"
     inkscape:showpageshadow="2"
     inkscape:pageopacity="0.0"
     inkscape:pagecheckerboard="0"
     inkscape:deskcolor="#d1d1d1" />
  <title
     id="title1" />
  <desc
     id="desc1" />
  <g
     fill="none"
     fill-rule="evenodd"
     id="Introduction"
     stroke="none"
     stroke-width="1"
     transform="translate(-359.74247,-35.33855)">
    <g
       id="variations"
       transform="translate(-762.3843,-1736.5087)">
      <g
         id="images"
         transform="translate(126,110)">
        <g
           id="a-person/bust"
           transform="translate(960,1620)">
          <g
             fill-rule="evenodd"
             id="body/Coffee"
             transform="translate(31.056338,135.05284)">
            <path
               d="m 83.283127,0.67059335 c 5.215141,-3.97275145 18.308033,-5.75929545 23.874083,-1.93406655 5.49761,3.8412916 6.09694,10.053186 8.65877,15.7676752 2.41711,-1.140235 6.40872,0.492771 7.10949,2.736466 0.86916,1.058231 0.90819,4.031371 1.50756,5.45397 26.07929,4.152822 30.03862,24.492887 33.17763,47.584597 4.15268,23.432196 13.57965,46.813245 9.48718,70.925355 0.53325,0.77185 0.95367,1.52214 1.3424,2.4132 0.93148,1.58555 -0.26831,3.82988 -2.14711,3.74301 -2.43191,-0.21367 -4.83972,-0.50534 -7.28303,-0.59643 -6.77319,-0.23532 -13.55256,-0.20726 -20.32831,-0.12114 l -0.92395,0.0121 c -34.14781,0.42524 -68.293727,1.26324 -102.443023,1.48548 -1.238873,0.002 -1.845423,-1.1097 -1.68,-2.20618 0.333169,-2.20756 0.642253,-4.41616 0.964859,-6.62478 -8.077183,2.13422 -16.663944,2.67126 -24.7183098,0.22446 -0.5634507,-0.57424 1.3128168,-0.26292 1.6104928,-0.35021 C 4.0793239,134.11696 6.2929859,123.44229 6.9496056,115.75379 11.032563,89.408762 12.47193,60.259752 28.24707,37.779055 c 6.824578,-9.174293 16.83,-16.43798 28.326972,-18.072352 l 0.318961,-0.04369 c 3.361703,-0.44841 7.108292,-0.592856 10.047518,-2.422346 3.305749,-2.640042 4.714455,-7.5181398 8.192243,-7.5638052 1.148382,-0.015079 2.7106,1.4382762 4.391701,2.4250342 0.125497,-2.1707029 1.294857,-4.0025805 1.553038,-5.68564 l 0.0209,-0.1439324 C 81.367809,4.3101098 80.998848,2.5447415 83.283127,0.67059335 Z M 139.32995,70.97526 c -7.32903,-5.093438 -26.26135,-2.534186 -26.69476,-2.248974 -0.95429,0.627922 -1.36523,0.683454 -1.88136,1.498843 -0.50958,0.06763 -1.01873,0.137801 -1.52746,0.210083 -1.02064,0.33351 -0.2643,1.589354 0.91457,1.141291 -0.70906,3.059147 1.37765,5.23472 2.20838,8.259017 0.26974,0.981968 0.01,2.748053 0,3.751386 0.0806,1.279283 1.49441,2.790378 1.25877,4.073827 -0.83774,4.562882 -5.3838,9.013896 -3.46715,13.438907 1.26972,2.49922 5.0886,3.77362 7.62761,4.62325 5.26035,2.01966 14.42603,-0.0761 17.48244,-4.62325 1.63024,-2.425407 3.51895,-8.543507 4.49099,-10.441222 l 0.21545,-3.010385 c 0.53133,-7.483241 1.00395,-15.538982 -0.62748,-16.672773 z"
               fill="#ffffff"
               id="ðŸŽ¨-Background" />
            <path
               d="m 73.855838,9.2355851 c 0.505986,-0.4482739 1.254718,0.1149746 0.933169,0.7204932 -0.722535,1.3608847 -1.463662,2.6503327 -2.43338,3.8533387 -0.587958,0.72937 -1.217747,1.419217 -1.855986,2.101456 1.637958,1.417526 3.042676,3.17744 4.369225,4.826818 1.696268,2.109487 3.3,4.308375 5.204155,6.238638 1.877908,1.903672 3.954345,3.234405 6.465009,4.121784 l 0.507076,0.176193 c 2.522157,0.885785 5.217817,2.082008 6.639464,4.470946 0.280352,0.4711 -0.284155,1.053159 -0.758661,0.759171 -2.470353,-1.530176 -5.372958,-1.837903 -8.061972,-2.849002 -2.597536,-0.97665 -4.861902,-2.479773 -6.862606,-4.3982 -1.997324,-1.915256 -3.674366,-4.094278 -5.423662,-6.227225 -1.729859,-2.109065 -3.592394,-3.910403 -5.638521,-5.694834 -3.157506,2.124998 -6.761721,3.049644 -10.426594,3.957806 l -0.400026,0.09906 c -3.669296,0.908807 -7.318943,1.96429 -10.761338,3.546881 -3.03507,1.395123 -6.020282,3.061198 -8.492535,5.331522 -2.624366,2.409394 -4.666902,5.486654 -6.536409,8.496071 -4.181831,6.732775 -7.121831,14.1089 -9.71007,21.574638 -2.691972,7.765432 -4.943662,15.686419 -6.761408,23.701456 -0.924507,4.076947 -1.675352,8.182849 -2.292465,12.317495 -0.297042,1.991342 -0.560916,3.986919 -0.792676,5.986919 -0.247395,2.1357 -0.304226,4.3329 -0.9591552,6.38638 -0.2807746,0.88006 -0.9437324,1.24527 -1.6073239,1.2142 l -0.1347837,1.68632 c -0.178729,2.24833 -0.3453431,4.49737 -0.4016248,6.75966 -0.093362,3.76162 -0.05103,7.5124 0.2194413,11.26604 l 0.038305,0.51188 c 0.2125352,2.73952 0.6874648,5.81763 2.7466903,7.82355 2.132535,2.07758 5.412042,2.73086 8.286338,2.76827 6.694437,0.0873 13.138521,-3.07705 19.062465,-5.85313 6.100986,-2.85894 12.035282,-6.03236 17.827394,-9.47399 2.949719,-1.75273 5.867536,-3.56379 8.748169,-5.42769 1.413592,-0.91493 2.817254,-1.8453 4.210352,-2.79067 0.797958,-0.54148 1.554085,-1.13516 2.366409,-1.61556 -0.398028,-0.37071 -0.575704,-0.95361 -0.242324,-1.46254 -2.34824,-2.03911 -3.325564,-5.67793 -3.439859,-8.62225 -0.09232,-2.37663 0.257324,-4.7465 0.533239,-7.100739 0.139226,-1.187155 0.311197,-2.372196 0.489719,-3.554067 0.07056,-0.466873 0.124436,-0.966293 0.20683,-1.459162 -6.340774,3.4858 -12.859225,6.590113 -19.550281,9.348028 -3.429719,1.41372 -6.90338,2.68478 -10.425,3.84953 l -0.713778,0.23494 c -3.336742,1.09266 -6.753321,2.12482 -10.202842,2.74954 -0.184437,0.0334 -0.334225,-0.23904 -0.137324,-0.3259 3.36169,-1.48389 6.839789,-2.73551 10.251972,-4.1021 l 0.560704,-0.22847 v 0 c -0.06444,-0.004 -0.131197,-0.0125 -0.200915,-0.0292 -2.001127,-0.48314 -3.98662,-1.22773 -5.949296,-1.85459 -1.821549,-0.58185 -3.868099,-0.94728 -5.570704,-1.82565 -0.130986,-0.0676 -0.05768,-0.24982 0.06993,-0.25848 1.913662,-0.13273 3.991057,0.42524 5.867324,0.75346 l 0.704852,0.12352 c 1.18077,0.20828 2.387754,0.43219 3.562754,0.72421 0.04246,-0.39375 0.262394,-0.78918 0.575282,-1.02103 3.443028,-2.550793 3.09338,-7.702668 3.461619,-11.50169 l 0.273061,-2.820475 c 0.480301,-4.936135 0.988418,-9.871609 1.76039,-14.770844 0.0412,-0.261651 0.445775,-0.186622 0.447465,0.06045 0.03982,6.073069 -0.418457,12.118195 -0.648157,18.181788 l -0.03557,0.994712 c -0.126988,3.74149 -0.226513,7.62659 -2.582049,10.505539 0.329366,-0.19254 0.774718,-0.19254 1.041549,0.1249 0.327888,0.39037 0.517183,0.82871 0.511268,1.25881 2.128521,-0.89275 4.247746,-1.80874 6.35662,-2.74333 6.780211,-3.004979 13.418239,-6.367774 19.880704,-10.00638 0.695493,-0.391632 1.356549,-0.08391 1.700493,0.432422 l 0.04964,-0.0071 c 0.0083,-0.0011 0.0167,-0.002 0.02536,-0.0022 l 0.04923,-0.0021 c 0.0019,0 0.0038,2.11e-4 0.0055,2.11e-4 0.909719,-0.500055 2.149014,-0.14393 2.929648,0.58544 0.02303,0.02198 0.04268,0.04565 0.06317,0.0689 0.98831,-0.443835 1.911127,-1.043013 2.748592,-1.802395 1.713802,-1.553847 3.165422,-3.475233 4.430915,-5.401902 2.330493,-3.548572 4.310071,-7.494693 7.458169,-10.415765 2.557817,-2.373253 5.728944,-3.850803 9.055775,-4.778419 -0.01394,-0.09722 0.02324,-0.200783 0.09042,-0.269683 0.170916,-0.175209 0.292817,-0.235867 0.513592,-0.129558 0.01754,0.0087 0.0281,0.0205 0.03528,0.03318 l 0.324637,-0.554894 c 0.1772,-0.30109 0.359156,-0.604377 0.422193,-0.684041 0.377747,-0.47575 0.766479,-0.947906 1.161127,-1.410129 0.669085,-0.78263 1.431553,-1.554904 2.314443,-2.097652 1.93309,-1.188 3.96528,-0.515695 5.95267,0.133573 1.20085,0.392478 2.39768,0.797636 3.59641,1.196032 l 0.12365,0.0404 c 0.89385,0.287299 1.9398,0.538596 2.33952,1.485976 0.15824,0.374936 0.18274,0.764032 0.10901,1.141503 8.48958,-2.159788 17.91888,-1.167499 26.20331,1.36786 0.31796,0.09722 0.63549,0.358872 0.70247,0.702528 0.94922,4.869722 1.37197,9.863718 0.94246,14.816501 -0.37056,4.275194 -1.31746,8.46479 -3.10183,12.378787 l -0.10145,0.220989 c -1.67694,3.627296 -4.33477,8.098766 -8.39383,9.235666 -2.45092,0.68646 -5.16169,0.28173 -7.66141,0.15597 -2.42936,-0.12237 -4.91261,-0.14012 -7.31894,-0.52224 -2.1431,-0.34028 -4.02085,-1.30129 -5.34528,-3.0445 -1.14254,-1.50397 -1.74423,-3.32159 -2.23712,-5.129682 -0.22563,0.07186 -0.44979,0.148157 -0.67035,0.234599 -0.93106,0.363734 -1.71993,0.950865 -2.43317,1.641763 -1.50612,1.45916 -2.67444,3.23134 -4.250281,4.62371 -1.426479,1.2605 -3.051972,2.24074 -4.795563,2.99441 -3.61295,1.5617 -7.488811,2.1858 -11.310505,3.01347 l -0.266538,0.0581 c -2.877042,0.63151 -5.813662,1.40695 -8.353098,2.90543 -0.04965,0.44109 -0.250564,0.85618 -0.572535,1.12798 0.447887,0.42079 0.637605,1.08718 0.244014,1.71236 -1.09941,1.74543 -2.993134,2.73854 -4.693213,3.85475 l -0.11059,0.073 c -1.672395,1.10916 -3.359366,2.19635 -5.060071,3.26135 -3.457394,2.16549 -6.987042,4.21178 -10.566549,6.16804 -5.757253,3.14637 -11.638099,6.11437 -17.625422,8.80655 0.359366,1.76868 0.228055,3.59244 0.498163,5.37294 l 0.04141,0.25405 c 0.115387,0.66072 -0.04048,1.21361 -0.495457,1.64531 l -0.04814,0.0442 8.46e-4,-0.006 -0.04268,0.0391 -0.01426,0.012 0.0048,-0.004 c -0.05245,0.048 -0.106558,0.0927 -0.161708,0.13107 l -0.07026,0.0452 v 0 c -0.438216,0.26641 -1.002401,0.26334 -1.45108,0.0282 l -0.05124,-0.0282 -0.0862,-0.0495 c -0.592816,-0.34112 -1.001619,-1.18631 -0.755704,-1.85777 0.604437,-1.65023 0.832817,-3.41141 1.390986,-5.07262 l -0.442817,0.19803 v 0 l -0.58364,0.25448 c -6.312239,2.73059 -13.323859,5.03004 -20.2015,3.16855 -3.038874,-0.82278 -5.8791557,-2.56304 -7.3996486,-5.39957 -1.4961972,-2.7911 -1.7076761,-6.03194 -1.7871127,-9.13668 -0.098028,-3.83199 0.1073239,-7.72253 0.6124648,-11.52155 0.3390845,-2.55015 0.7491549,-5.14849 1.3816901,-7.67222 -0.3253521,-0.28723 -0.564507,-0.69915 -0.627676,-1.20935 -0.2985212,-2.41045 0.2239436,-4.91643 0.5438028,-7.31441 0.3124648,-2.341335 0.657676,-4.678024 1.0480986,-7.007527 0.7881906,-4.704071 1.7040357,-9.398584 2.770303,-14.047868 1.897606,-8.274575 4.403451,-16.402051 7.420352,-24.335295 l 0.264199,-0.691036 c 2.787776,-7.251163 6.015601,-14.34777 10.510238,-20.717904 2.15007,-3.047671 4.422887,-5.810865 7.460915,-8.007006 2.846198,-2.057706 6.05662,-3.539272 9.369719,-4.671686 3.31669,-1.133261 6.725704,-1.892642 10.194929,-2.36501 3.52331,-0.479765 7.242254,-0.773965 10.528944,-2.219601 -0.415775,-0.745644 -0.05894,-1.752305 0.640775,-2.21474 2.354788,-1.556383 4.532324,-3.581119 6.642887,-5.4519919 z M 149.23732,76.914451 c 0.0987,-0.149847 0.33296,-0.05516 0.28965,0.12216 -1.14528,4.693879 -2.22042,9.397269 -2.92246,14.18076 -1.26731,8.633595 -1.03419,17.379939 -0.93059,26.077389 l 0.005,0.44982 c 0.0532,4.68479 0.12719,9.37 0.28205,14.05289 0.0782,2.3667 0.23281,4.75665 0.14873,7.12462 -0.0459,1.28459 -0.3881,2.49964 -0.50937,3.7688 -0.10626,1.1098 -0.0116,2.23672 0.0414,3.348 0.0355,0.73888 -1.05465,0.70739 -1.1288,0 l -0.0948,-0.91497 c -0.12318,-1.15792 -0.27543,-2.30876 -0.65476,-3.41708 -0.45613,-1.33298 -0.675,-2.64209 -0.83324,-4.04165 -0.24238,-2.14464 -0.35016,-4.31076 -0.44371,-6.47049 l -0.064,-1.49382 c -0.39063,-9.02555 -0.37694,-18.09345 0.25546,-27.10955 l 0.0462,-0.64392 c 0.62619,-8.522485 1.71274,-17.730806 6.51295,-25.032959 z m -24.413,-53.71398 c -0.29916,-0.123006 -0.19437,-0.575507 0.1369,-0.496673 l 0.60244,0.14376 c 4.41434,1.057747 8.74857,2.203772 12.86883,4.172013 4.12288,1.969362 7.61345,4.909456 10.38697,8.524814 5.39155,7.027609 7.63204,15.568274 9.40077,24.100908 1.96564,9.481386 3.75528,18.997433 5.73803,28.475859 l 0.36819,1.765565 c 1.83465,8.828019 3.56683,17.661043 4.84315,26.593633 l 0.0917,0.64785 c 1.28708,9.18561 2.06126,18.68928 0.65684,27.89881 -0.27782,1.82205 -3.30866,1.36828 -3.19014,-0.43179 0.34225,-5.20408 0.58732,-10.38089 0.35049,-15.5966 -0.23704,-5.21676 -0.72612,-10.41069 -1.45521,-15.5818 -0.61355,-4.35176 -1.52817,-8.64936 -2.33757,-12.96653 l -0.12687,-0.681834 C 162.4811,96.09654 161.78239,92.428277 161.08523,88.75977 l -1.04184,-5.492556 c -1.56148,-8.224283 -3.15351,-16.455772 -4.95243,-24.628371 l -0.10676,-0.480902 c -1.76046,-7.862682 -4.35587,-16.098873 -9.63648,-22.342605 -5.35881,-6.336493 -13.03014,-9.527671 -20.52338,-12.614865 z m -19.47191,83.398339 c 0.12888,-0.28722 0.57972,-0.25573 0.71831,0 0.54304,1.00232 0.60339,2.28173 0.70604,3.41325 l 0.0108,0.11651 c 0.13056,1.38075 0.24612,2.76615 0.3169,4.15135 0.13415,2.62898 0.19838,5.25459 0.19014,7.88695 -0.008,2.69768 -0.0628,5.39218 -0.2081,8.08584 l -0.0394,0.72178 c -0.1327,2.34084 -0.35525,4.95183 -1.46711,6.99821 -0.40415,0.74417 -1.50338,0.52542 -1.73746,-0.22699 -0.7669,-2.46349 -0.3731,-5.38436 -0.17641,-7.90746 l 0.15273,-1.96875 c 0.15124,-1.96898 0.29547,-3.9387 0.40987,-5.90996 0.15676,-2.69704 0.28606,-5.39641 0.4105,-8.09472 0.0404,-0.8764 0.0841,-1.75308 0.13031,-2.62948 l 0.071,-1.31431 c 0.0606,-1.09945 0.0556,-2.30583 0.5119,-3.32222 z m -86.228399,3.49141 0.339495,-0.32808 c 1.042183,-1.02029 2.359184,-2.59167 3.89986,-2.49421 0.614366,0.0389 1.005845,0.54908 0.878451,1.15376 -0.272113,1.29261 -1.590211,1.96344 -2.539014,2.75262 -1.039437,0.86421 -2.019085,1.78803 -2.996831,2.72072 -0.867418,0.82699 -1.701617,1.67752 -2.515804,2.55457 l -0.304407,0.33015 c -0.291849,0.31859 -2.370111,2.19913 -2.145405,2.68703 l 0.01224,0.0218 c 0.06254,0.0934 -0.04162,0.22192 -0.145352,0.18916 -0.897464,-0.28363 -0.841478,-1.05316 -0.502183,-1.83283 0.651972,-1.49805 1.793662,-2.88387 2.790634,-4.16318 0.994278,-1.27622 2.070443,-2.46459 3.228321,-3.59155 z M 108.6045,72.522106 c -0.69401,-1.640924 -3.25056,-1.606474 -4.70197,-1.508407 -3.65493,0.247068 -7.609438,1.172148 -10.861481,2.881127 -3.371545,1.771753 -5.642607,4.61061 -7.674706,7.74974 l -0.09508,0.147363 c -1.980634,3.080008 -3.888169,6.726012 -6.989578,8.843742 -1.579648,1.078943 -3.424225,2.064047 -5.340845,2.490763 -0.13162,0.231429 -0.344789,0.41467 -0.624296,0.481245 l -0.129931,0.02974 c -0.545875,0.120573 -1.393926,0.254001 -2.126407,0.174208 0.0049,0.35845 0.0011,0.714153 0.01014,1.053793 0.02577,0.973268 0.03676,1.950763 0.03676,2.924665 4.22e-4,2.040587 -0.109226,4.085195 -0.02408,6.125575 0.07542,1.80472 0.330211,3.69038 1.196409,5.30361 0.635281,1.18356 1.473802,1.96683 2.485986,2.71458 2.489999,-1.51813 5.305563,-2.44342 8.163168,-3.13918 3.455916,-0.84139 6.994437,-1.40295 10.371761,-2.5438 1.625493,-0.5493 3.18824,-1.26812 4.604155,-2.24433 1.502746,-1.03669 2.650563,-2.4392 3.831555,-3.81107 l 0.18459,-0.21315 c 1.20526,-1.382817 2.52037,-2.706007 4.22372,-3.455687 1.46683,-0.645886 3.40014,-0.760861 4.68275,-1.760125 0.67056,-0.522881 0.72676,-1.281628 0.79732,-2.058552 -0.82141,0.117511 -1.69099,-0.0708 -2.50965,-0.166755 l -0.42416,-0.04981 c -0.77413,-0.09201 -1.53045,-0.19315 -2.29253,-0.390226 -0.14155,-0.03656 -0.14155,-0.250027 0,-0.286591 0.90064,-0.232697 1.79324,-0.33182 2.71669,-0.440031 l 0.2169,-0.02706 c 0.83541,-0.109604 1.71351,-0.275027 2.53296,-0.09109 0.14704,-0.559655 0.35937,-1.093949 0.65725,-1.629088 0.4181,-0.751773 1.2093,-1.604149 1.3162,-2.482309 0.0319,-0.262286 -0.0291,-0.571491 -0.15275,-0.803343 l -0.0426,-0.07903 c -0.0519,-0.09334 -0.11349,-0.187201 -0.20353,-0.245392 -0.01,0.01162 -0.0311,0.02494 -0.0769,0.03931 -0.63064,0.198669 -1.18078,-0.110114 -1.47275,-0.586075 -1.23951,0.153863 -2.59225,0.102083 -3.75465,0.153441 l -1.17527,0.05687 c -1.2558,0.0576 -2.56866,0.08281 -3.74874,-0.170996 -0.16479,-0.0353 -0.21465,-0.309629 -0.0496,-0.38022 1.45078,-0.620735 3.21063,-0.818771 4.76387,-1.057174 0.86747,-0.133362 1.74127,-0.23481 2.61127,-0.352109 0.5793,-0.0782 1.19409,-0.207335 1.7943,-0.238403 1.50486,-1.874044 0.69401,-4.830411 -1.40029,-5.637347 -0.76288,0.335413 -1.44887,0.140337 -2.28232,0.06869 -0.83197,-0.07144 -1.66606,-0.119836 -2.50141,-0.116243 -1.67387,0.0074 -3.44767,0.447852 -5.10528,0.25827 -0.269581,-0.03107 -0.520144,-0.389941 -0.252046,-0.6089 1.268876,-1.035841 3.087326,-1.373586 4.697946,-1.59433 l 0.33382,-0.04469 c 0.54,-0.0708 1.19662,-0.174153 1.87775,-0.235656 0.15401,-0.30054 0.43035,-0.527742 0.84549,-0.584172 0.12338,-0.01691 0.24739,-0.02684 0.3712,-0.03741 l -0.002,-0.01226 v 0 c 1.01239,-0.04861 0.96845,-1.759279 0.69084,-2.415733 z M 39.294148,104.52582 c -0.01789,0.0276 -0.03746,0.0539 -0.05829,0.0792 l -0.03213,0.0372 0.166479,-0.0676 z M 126.27112,68.855389 c -4.26127,-0.457996 -8.52866,-0.361409 -12.80261,-0.238403 -0.34183,1.118466 -1.53169,2.071656 -2.68457,2.107585 0.90295,1.374834 0.99612,3.235562 0.36295,4.693668 1.3443,0.53535 2.50247,1.496994 3.20557,2.866544 0.975,1.898559 0.84739,4.011217 -0.1162,5.765847 0.82246,0.744799 1.30775,1.954356 1.25915,3.09438 -0.0543,1.271272 -0.81169,2.35719 -1.44105,3.409714 -0.68007,1.138333 -0.70289,2.140556 -0.91183,3.415421 -0.30571,1.8658 -1.56359,2.99737 -3.18212,3.704125 l 0.0861,0.338574 c 0.41728,1.624881 0.93646,3.339386 2.1291,4.527556 1.5342,1.52856 3.91427,1.51434 5.94128,1.6112 l 0.0978,0.005 c 1.85611,0.0928 3.71142,0.20162 5.56688,0.30678 l 1.39164,0.0779 c 2.13634,0.11751 4.18796,0.13167 5.93197,-1.2812 2.84726,-2.30626 4.79916,-6.123034 6.03465,-9.501891 2.5931,-7.09207 2.62416,-14.875045 1.43387,-22.261315 -3.9919,-1.287123 -8.1338,-2.193182 -12.30253,-2.641245 z m -35.437772,11.76616 0.03133,0.0023 c 0.877394,0.10018 1.480141,0.810951 1.694789,1.654027 0.311831,1.225409 0.158873,2.333307 0.909084,3.439515 0.771761,1.137487 1.246268,2.048195 1.358451,3.453464 0.04606,0.578254 0.02493,1.155029 0.153592,1.721025 l 0.09329,0.39655 c 0.09907,0.42284 0.180136,0.830115 0.130861,1.284108 -0.045,0.414035 -0.246549,0.736555 -0.66169,0.869283 -1.352746,0.432846 -2.397253,-0.564305 -2.74669,-1.825432 -0.301901,-1.0893 0.101197,-2.387413 -0.324718,-3.410349 -0.235986,-0.567052 -0.671197,-1.041322 -0.917113,-1.612179 -0.243591,-0.565785 -0.365915,-1.156932 -0.405,-1.771961 -0.07416,-1.163272 0.954296,-2.560932 0.380493,-3.614936 -0.122185,-0.224876 0.01619,-0.592203 0.30332,-0.585405 z M 72.864465,68.617261 c 0.916056,-0.1862 1.955281,-0.612916 2.858662,-0.25827 0.464366,0.182607 0.693803,0.749025 0.301479,1.142771 -0.681163,0.683072 -1.671147,0.721137 -2.588612,0.882208 l -0.08075,0.01455 c -1.084859,0.200783 -2.171619,0.39121 -3.259859,0.571703 -2.047394,0.339217 -4.099648,0.639123 -6.159084,0.894012 -2.115212,0.261863 -4.236338,0.494982 -6.360423,0.670403 l -0.822299,0.06749 c -1.794251,0.143552 -3.661222,0.25183 -5.421715,-0.02311 -0.255845,-0.03994 -0.214648,-0.412556 0,-0.477863 1.928662,-0.583961 4.044296,-0.740571 6.03824,-0.98764 2.119859,-0.263131 4.236126,-0.541056 6.346901,-0.870763 2.107394,-0.329284 4.212042,-0.682661 6.308873,-1.073237 0.947747,-0.176266 1.894014,-0.360352 2.838592,-0.552258 z m 33.053765,-1.874952 c -0.80387,-0.284689 -1.68824,-0.706544 -2.55929,-0.565362 -1.50212,0.243476 -2.83902,1.707499 -4.028031,2.671679 l 0.597017,-0.116089 c 3.054794,-0.587356 7.100134,-1.220094 9.664464,0.722876 0.007,-0.0112 0.0116,-0.0224 0.019,-0.0336 0.20704,-0.314489 0.44683,-0.559867 0.70859,-0.828916 0.025,-0.0236 0.0492,-0.04798 0.073,-0.07275 l 0.14122,-0.150434 -0.32301,-0.11194 c -0.69185,-0.244647 -1.51147,-0.560568 -1.64104,-0.606681 l -0.009,-0.0031 c -0.88204,-0.298849 -1.76514,-0.594317 -2.64296,-0.905636 z M 80.819282,2.6874669 c -0.125704,-1.6174638 2.390704,-1.6041487 2.515352,0 0.271901,3.5020744 -0.515916,6.9709668 -2.211549,10.0412521 -0.01247,0.0224 -0.0262,0.04227 -0.0393,0.06341 1.060563,0.552046 2.133169,1.08169 3.229648,1.555115 1.402605,0.60573 2.831619,1.157354 4.286197,1.625284 1.315774,0.423546 2.936831,0.590724 4.043028,1.472054 2.332606,1.858192 1.456268,5.71449 1.007535,8.21413 l -0.07001,0.394598 c -0.223431,1.286284 -0.385029,2.605956 0.157049,3.840439 0.578874,1.318614 1.749507,2.296743 2.793803,3.240211 l 0.210921,0.191319 c 0.925149,0.843127 1.982263,1.867656 2.66084,3.010638 0.619434,-1.281205 1.463874,-2.328235 2.356684,-3.506935 0.63698,-0.841175 0.18359,-1.118466 -0.27401,-1.940196 -0.44049,-0.790873 -0.65556,-1.633949 -0.51782,-2.536204 0.25416,-1.666285 1.58535,-2.869925 2.91043,-3.774293 1.56485,-1.06753 3.3114,-1.858403 4.92908,-2.851538 3.32408,-2.040376 6.56134,-4.373261 9.47789,-6.964204 0.0805,-0.07165 0.21993,0.02219 0.15549,0.120047 -2.30387,3.505668 -5.00535,6.534951 -8.32542,9.106239 -1.34624,1.042617 -2.76044,1.907465 -4.1841,2.816581 l -0.4093,0.262751 c -0.57163,0.370437 -1.28462,0.865528 -1.54308,1.49619 -0.26007,0.634263 0.29451,1.113182 0.59303,1.638599 0.94795,1.668515 0.4906,3.225307 -0.63323,4.640297 l -0.0523,0.06521 c -1.11676,1.376736 -1.9631,2.657096 -2.36788,4.415953 -0.86976,3.778263 0.3417,7.71383 1.60984,11.260847 l 0.0501,0.139811 c 0.68598,1.911875 1.41507,3.8098 2.01105,5.752321 l 0.16399,0.53703 c 0.54,1.78732 0.9822,3.550139 0.37643,5.387541 -0.20598,0.624963 -1.05802,0.772697 -1.4119,0.184509 -1.24838,-2.074192 -1.55957,-4.570239 -2.34211,-6.850708 -0.76268,-2.22256 -1.63838,-4.404963 -2.375068,-6.636611 -0.948591,-2.873307 -1.58345,-5.966207 -1.238873,-8.980063 -0.01014,-0.01754 -0.02134,-0.03403 -0.02979,-0.05263 L 98.090413,39.538055 C 97.431946,38.107272 96.795966,36.857726 95.598507,35.717291 94.349493,34.5276 92.993789,33.474441 92.010972,32.034301 89.87619,28.906063 91.196456,25.426183 91.454314,22.005723 l 0.02951,-0.419436 c 0.04684,-0.710178 0.07251,-1.675331 -0.391229,-2.166851 -0.521619,-0.553316 -1.744859,-0.694497 -2.436971,-0.939452 -1.788592,-0.633206 -3.551198,-1.37103 -5.22993,-2.25701 -1.598028,-0.843288 -3.145986,-1.77492 -4.587253,-2.866333 L 78.107926,12.80687 c -1.152595,-0.869994 -2.34777,-1.820038 -3.120264,-3.0042954 -0.08916,-0.136321 0.06232,-0.3563366 0.223732,-0.2910294 1.289578,0.5235148 2.467817,1.3562348 3.674367,2.0807438 0.0188,-0.04417 0.04056,-0.08877 0.06528,-0.133573 1.492817,-2.7027481 2.106761,-5.6971591 1.868241,-8.7712491 z M 122.01296,21.204965 c 0.5138,-1.409495 2.85549,-1.30065 2.76211,0.37409 -0.0716,1.286613 -0.61764,2.447918 -1.11692,3.616126 l -0.0533,0.125197 c -0.51549,1.217166 -1.11085,2.359937 -1.82324,3.475444 -1.3612,2.132525 -2.95563,4.111609 -4.65866,5.979312 -1.54395,1.693338 -3.57042,2.728743 -5.90557,2.556704 -0.98387,-0.07249 -1.97704,-0.322943 -2.83922,-0.814544 -1.02401,-0.584172 -2.13613,-2.338168 -3.44261,-1.913354 -0.12634,0.041 -0.24422,-0.144141 -0.135,-0.231852 1.50824,-1.215052 3.22014,0.668924 4.66416,1.122905 2.17584,0.683718 4.40873,-0.07228 5.80922,-1.831985 1.46219,-1.837268 2.80796,-3.89434 4.03691,-5.894771 0.62408,-1.015749 1.19345,-2.069965 1.68528,-3.156517 0.49626,-1.096696 0.60908,-2.2885 1.01683,-3.406755 z m -3.50732,-8.674323 c -0.0634,-0.194654 0.17831,-0.379797 0.34923,-0.268626 0.99105,0.645464 1.84985,1.498262 2.76401,2.245808 1.0143,0.829338 2.03599,1.641769 3.07352,2.44173 1.51247,1.166442 -0.24169,3.313761 -1.5731,2.03953 -1.82197,-1.743006 -3.81739,-4.022207 -4.61366,-6.458442 z m -5.44122,-6.8222819 c 0.40263,-1.5531647 2.78395,-0.91267 2.43692,0.6223469 l -0.0113,0.046788 c -0.65727,2.5355058 0.27883,5.116808 2.27719,6.760557 l 0.0736,0.05972 c 1.26423,1.012157 -0.5269,2.781581 -1.77866,1.779147 -2.73275,-2.187898 -3.86958,-5.9044934 -2.99768,-9.268556 z"
               fill="#000000"
               id="ðŸ–-Ink" />
          </g>
          <g
             fill-rule="evenodd"
             id="head/hat-hip"
             transform="translate(78.591549,38.043053)">
            <path
               d="M 88.432542,59.852733 C 88.348458,55.118064 88.2555,50.28871 87.551979,45.600115 86.864091,41.01635 84.971768,36.873039 81.719937,33.544483 74.812965,26.474182 64.800993,24.747238 55.481556,23.164647 L 39.547965,20.458729 c -4.861057,-0.825322 -10.047042,-2.144571 -14.958381,-0.974113 -2.42007,0.576775 -4.475281,1.916736 -6.353662,3.502074 -1.810563,1.528063 -3.757183,3.168987 -4.984013,5.224791 -1.228944,2.058763 -1.651691,4.465409 -2.051198,6.793855 -0.450633,2.625182 -0.800704,5.270865 -1.049366,7.922889 -0.4983802,5.313346 -0.5664084,10.666638 -0.2049295,15.990974 0.1751405,2.582489 0.4538025,5.157581 0.8095775,7.721261 0.176408,1.271272 0.375845,2.539373 0.601056,3.803037 0.06634,0.37261 0.116831,0.785166 0.18486,1.201949 -0.502606,1.429996 -0.78824,2.910927 -0.765212,4.385518 0.06782,4.343672 3.732676,7.078333 7.427324,8.546584 2.142254,0.851318 4.381901,1.429784 6.486761,2.380861 2.214295,1.000321 3.721479,2.622011 5.235422,4.47196 2.887395,3.528282 6.145775,6.699382 9.866409,9.345061 7.888309,5.60945 17.879577,8.26253 27.450845,6.24879 2.296479,-0.48315 4.613239,-1.23344 6.677535,-2.36396 2.179437,-1.19349 3.818239,-2.92297 5.194437,-4.967785 2.555281,-3.796063 4.387817,-8.070622 5.774154,-12.420423 1.414015,-4.437088 2.417747,-8.882207 2.965141,-13.508876 0.545493,-4.611664 0.660423,-9.270247 0.577817,-13.910443 z"
               fill="#ffffff"
               id="path1" />
            <path
               d="M 37.586831,3.9657346 C 44.180493,3.0584078 53.281268,6.0073785 56.565,11.953508 72.242324,8.2561456 92.015493,8.1350419 104.93683,20.443449 118.41972,35.04395 101.48451,54.294791 90.255,58.635081 c 0.817606,3.974865 -0.457183,29.439405 -9.477253,40.798004 -7.158592,9.624045 -23.829085,14.065575 -31.543099,2.570445 l -0.06017,-0.0948 c -0.826444,-1.32755 -0.114676,-1.28492 0.733693,-0.29742 7.553662,6.64528 17.824014,6.75877 25.73831,-0.25425 C 90.479155,88.538611 88.949789,57.108709 81.891761,38.926032 61.793873,36.717844 40.275422,42.811707 26.394085,57.94629 l 0.938661,5.653198 c 0.15993,0.963123 0.34162,1.925401 0.480212,2.891906 0.08873,0.619257 0.09866,1.235131 -0.330212,1.736454 -1.416126,1.654873 -3.802816,-0.831875 -5.766549,-1.820994 -0.579718,-0.08158 -1.160493,-0.113072 -1.73007,-0.07292 -9.434789,1.215687 -7.575845,19.524963 2.793591,16.315609 0.871268,-0.542959 1.619789,-0.37726 1.957817,0.410653 2.47162,2.26483 4.101338,6.304157 8.207747,10.194693 1.448873,1.459374 2.767394,2.680345 4.397112,3.851014 0.957254,0.968407 3.845705,1.955835 2.930071,3.613037 C 38.540915,104.48985 28.330141,92.644721 26.524859,89.369003 20.868591,91.603398 14.600282,90.844439 8.738662,90.29831 -22.184577,88.689934 -18.056408,56.080697 7.2906338,35.492854 12.061901,31.978944 17.326056,29.1124 22.798099,26.906537 c 0.747042,-0.301174 0.420633,-1.528274 -0.336972,-1.222873 -3.620705,1.459797 -7.150352,3.197307 -10.515,5.208305 l -0.0051,-1.202283 c -0.0049,-2.025 0.02682,-4.13322 0.378404,-5.983415 0.175774,-1.282051 0.471338,-2.65139 0.926408,-3.681511 0.562612,-3.158203 9.37564,-13.9987827 24.340992,-16.0590254 z M 19.573437,70.5374 c 0.477464,-0.45377 1.368802,0.08729 1.793873,0.07376 1.086972,0.14879 2.119648,0.608055 2.925,1.174896 0.53176,0.298004 0.904436,0.577832 1.215845,0.835256 l 0.0085,-0.0023 c -0.0023,0 -0.0053,0.0023 -0.0078,0.003 l 0.02931,0.01981 c 0.453438,0.322292 2.113341,2.137629 1.064632,1.649431 -0.07817,-0.101659 -0.158239,-0.199303 -0.238943,-0.295045 -0.0087,0.0131 -0.0207,0.026 -0.03507,0.03847 l 0.05891,0.08745 c 0.891336,1.341332 -0.647572,-0.07181 -0.884329,-0.447172 -0.0112,0.0091 -0.02387,0.01522 -0.03634,0.02177 l 0.308331,0.375409 c 0.04311,0.0533 0.07699,0.09585 0.10512,0.131831 l 0.06502,0.06279 c 1.030565,1.01336 1.062761,1.925347 -0.134525,0.427119 0.04711,0.07059 0.08493,0.145409 0.09021,0.211772 l 0.07095,0.09049 c 0.940064,1.211836 0.175433,0.781464 -0.291699,0.263893 l -0.03909,-0.04452 0.008,0.01209 c 0.434573,0.669725 -0.427679,0.19981 -0.580043,-0.158433 l -0.0064,-0.0162 c -0.166028,-0.135518 -0.268195,-0.287606 -0.303238,-0.326012 l -0.0065,-0.0064 c -0.808309,-0.828493 -1.98,-1.529542 -2.975281,-1.848047 -0.144296,-0.02748 -0.290282,-0.04946 -0.437747,-0.0651 -0.598521,-0.133574 -1.203591,-0.225088 -1.815,-0.274544 -0.07479,-0.0089 -0.150633,-0.06383 -0.207253,-0.134842 -0.924543,-0.03119 -0.639149,-0.410303 -0.255563,-0.480704 l 0.0067,-0.0012 -0.0761,-0.0064 c -0.593396,-0.058 -0.998608,-0.270968 -0.398672,-0.401682 l 0.07602,-0.01512 c -0.0093,-0.01458 -0.01754,-0.02917 -0.02556,-0.04375 -0.513803,-0.05643 -0.178521,-0.556063 0.10669,-0.435171 -0.12,-0.392477 0.428451,-0.196555 0.496902,-0.254888 0.05218,-0.05791 0.117042,-0.109057 0.154436,-0.111804 0.165212,-0.116666 0.08514,-0.106098 0.170705,-0.109902 z m 3.143746,-6.354374 -0.120422,0.07038 c -0.0974,0.05685 -0.197536,0.09468 -0.298099,0.116877 0.141972,0.06045 0.282253,0.125753 0.421056,0.195499 -0.0023,-0.08525 -0.0038,-0.170396 -0.0038,-0.25539 z"
               fill="#000000"
               id="path2" />
          </g>
          <g
             fill="#000000"
             fill-rule="evenodd"
             id="face/Smiling"
             transform="translate(112.1831,77.354207)">
            <path
               d="m 30.968993,50.919898 c -1.420199,-0.579597 -2.687376,-1.546402 -3.613804,-2.781433 -0.322085,-0.429348 -0.405596,-0.882732 -0.33803,-1.29741 0.07597,-0.466276 0.351722,-0.888873 0.72778,-1.172337 0.377224,-0.284343 0.849082,-0.424574 1.305271,-0.353088 0.396402,0.06212 0.791,0.279241 1.103296,0.729548 l 0.06525,0.09005 c 0.550778,0.745422 1.268492,1.357032 2.086277,1.75125 0.788212,0.379963 1.669747,0.557306 2.581992,0.454177 1.737429,-0.19634 2.934953,-1.136329 4.20779,-2.412817 0.157772,-0.16116 0.315645,-0.327372 0.474284,-0.496259 0.100183,-0.153096 0.239212,-0.251491 0.393572,-0.303117 0.171389,-0.05732 0.365271,-0.05408 0.542852,0.0079 0.171277,0.0598 0.32439,0.173105 0.427057,0.323913 0.09758,0.14333 0.152899,0.320396 0.134948,0.524065 -0.116505,1.322871 -0.807846,2.503477 -1.789869,3.430502 -1.090661,1.02958 -2.536412,1.741851 -3.897523,1.991666 -1.499545,0.275182 -3.027542,0.07803 -4.411139,-0.486629 z M 36.087529,30.51204 c 1.595362,0.970108 4.026203,3.232209 2.309961,5.637224 -2.020181,2.120581 -4.928786,-0.31081 -6.362095,-1.410433 -1.329032,-0.852215 -2.822274,1.339617 -1.589198,2.334721 10.357127,7.671008 14.560269,-6.307842 6.448244,-7.70212 -0.893164,-0.153644 -1.224887,0.840495 -0.806912,1.140608 z M 17.527458,21.588672 c 0.176266,-2.188802 3.508521,-2.68584 3.84,-0.519922 0.296831,1.940196 -0.05261,3.722513 -0.926197,5.469323 -0.834719,1.668822 -2.932715,0.890238 -3.091377,-0.629371 -0.21268,-2.036972 0.06793,-2.95847 0.177574,-4.32003 z m 25.36557,-0.96902 c 0.464578,-0.608689 1.135352,-1.024204 1.939014,-0.789394 2.510916,0.73402 1.770845,4.300133 0.889014,6.035953 -0.479155,0.942623 -2.027957,1.18166 -2.727887,0.351687 -1.140845,-1.353487 -1.687183,-4.056446 -0.236831,-5.389644 0.0393,-0.0689 0.08303,-0.138434 0.13669,-0.208602 z m -22.487134,-8.608509 0.396628,-0.06945 c 1.227,-0.21229 2.752633,-0.416276 3.620626,0.57056 0.460352,0.523304 0.618803,1.495938 0,1.996838 -1.088451,0.881331 -2.291831,0.539789 -3.596197,0.614395 -1.07493,0.06171 -2.108028,0.239672 -3.143451,0.535773 -2.271549,0.64948 -4.122465,1.835155 -6.062535,3.137073 -0.254578,0.170771 -0.514437,-0.15492 -0.392958,-0.393112 1.11993,-2.19445 3.290282,-3.997057 5.464225,-5.095867 1.160282,-0.586497 2.43,-1.073025 3.713662,-1.29621 z m 20.198235,-0.983014 0.303576,0.06215 c 3.303642,0.690821 7.595846,2.070794 9.160279,5.317019 0.05961,0.459028 -0.0034,0.557407 -0.05459,0.621682 l -0.01705,0.02139 c -0.0422,0.05489 -0.07588,0.130549 -0.274764,0.193024 -0.05519,-0.01316 -0.110931,-0.02709 -0.167261,-0.04186 -0.717109,-0.188001 -1.284481,-0.447 -1.833757,-0.715742 L 47.125001,16.192275 C 46.434039,15.85335 45.736976,15.52676 44.998249,15.285659 43.421742,14.771244 41.80017,14.408871 40.153474,14.215372 c -0.356909,-0.0419 -0.700589,-0.162408 -0.971729,-0.368932 -0.257365,-0.196032 -0.453976,-0.467444 -0.543619,-0.828209 -0.116178,-0.466887 -0.08279,-0.820359 0.167616,-1.24156 0.188291,-0.316313 0.457705,-0.535559 0.767061,-0.661458 0.315374,-0.128348 0.674425,-0.158606 1.031326,-0.08708 z"
               id="path3" />
          </g>
          <g
             fill="#000000"
             fill-rule="evenodd"
             id="facial-hair/Moustache-4"
             transform="translate(104.57745,109.47938)">
            <path
               d="m 64.493366,2.7485683 c -0.700141,-0.9402975 -1.958662,-2.17437182 -3.23176,-2.10800783 -0.162888,0.008454 -0.223944,0.18493151 -0.126127,0.30434442 0.416408,0.50872021 0.985352,0.87055181 1.402605,1.38983951 0.493733,0.6146067 0.850141,1.3558122 1.081902,2.1054716 0.336761,1.0890881 0.429718,2.321683 0.129507,3.4291586 -0.529014,1.9520313 -2.20162,3.3828724 -4.026549,4.1135104 -1.806338,0.723241 -3.979859,0.97031 -5.688169,-0.0894 C 51.513296,10.329069 49.374634,8.0739616 46.205408,8.0293667 45.46407,8.0190106 44.941606,8.3586505 44.630409,8.8434881 44.317732,8.3759812 43.801817,8.045218 43.07907,8.0369753 c -3.552887,-0.039945 -6.204718,2.4068567 -9.18676,3.9321727 -2.015282,1.030966 -4.622958,0.710982 -6.702042,0.0298 -1.961198,-0.642294 -4.090141,-1.932164 -4.83,-3.9689472 C 21.951887,6.9051945 22.043366,5.5918638 22.462732,4.4831202 22.738437,3.7539616 23.164141,3.0495311 23.690831,2.4765605 24.236958,1.8822434 24.954845,1.5085761 25.514282,0.94511624 25.628577,0.82993033 25.538366,0.65091663 25.388155,0.64056047 23.012239,0.4793002 20.866817,3.3173119 20.418296,5.3762865 c -0.441761,2.0276947 0.216972,4.0501057 1.550281,5.5974015 2.711198,3.145737 7.731338,4.183256 11.638522,3.25881 3.162464,-0.747969 6.166056,-2.470896 9.471971,-2.223617 0.724648,0.05432 1.244789,-0.247913 1.558733,-0.706121 0.314366,0.471523 0.837887,0.779883 1.567605,0.709292 3.081127,-0.298638 5.831198,1.884188 8.821902,2.417213 2.381197,0.42418 4.95338,-0.147945 6.993803,-1.431264 C 64.153859,11.65656 65.655127,9.5048031 65.754,6.9394333 65.81083,5.4635742 65.377944,3.9365683 64.493366,2.7485683"
               id="path4" />
          </g>
          <g
             id="accessories/*-None"
             transform="translate(88.521127,88.978474)" />
        </g>
      </g>
    </g>
  </g>
</svg>
