<?xml version="1.0" encoding="UTF-8" standalone="no"?>
<svg
   width="44"
   height="44"
   viewBox="0 0 44 44"
   fill="none"
   version="1.1"
   id="svg6"
   sodipodi:docname="Layer 2message-icon.svg"
   xmlns:inkscape="http://www.inkscape.org/namespaces/inkscape"
   xmlns:sodipodi="http://sodipodi.sourceforge.net/DTD/sodipodi-0.dtd"
   xmlns="http://www.w3.org/2000/svg"
   xmlns:svg="http://www.w3.org/2000/svg">
  <defs
     id="defs6" />
  <sodipodi:namedview
     id="namedview6"
     pagecolor="#ffffff"
     bordercolor="#000000"
     borderopacity="0.25"
     inkscape:showpageshadow="2"
     inkscape:pageopacity="0.0"
     inkscape:pagecheckerboard="0"
     inkscape:deskcolor="#d1d1d1" />
  <path
     d="M 0,22 C 0,6 6,0 22,0 38,0 44,6 44,22 44,38 38,44 22,44 6,44 0,38 0,22 Z"
     fill="#0b0909"
     id="path1" />
  <path
     fill-rule="evenodd"
     clip-rule="evenodd"
     d="m 30.5398,30.96 h -14.54 C 15.0944,30.9495 14.2297,30.5824 13.5932,29.9384 12.9567,29.2944 12.5997,28.4255 12.5998,27.52 v -7.9 l -2.44,-4.18 c -0.1016,-0.176 -0.1552,-0.3756 -0.1554,-0.5788 -2e-4,-0.2033 0.053,-0.403 0.1543,-0.5792 0.1012,-0.1762 0.247,-0.3227 0.4227,-0.4249 0.1757,-0.1021 0.3752,-0.1563 0.5784,-0.1571 h 19.38 c 0.4551,-0.0026 0.9062,0.085 1.3272,0.258 0.421,0.1729 0.8035,0.4277 1.1253,0.7495 0.3218,0.3218 0.5766,0.7043 0.7495,1.1253 0.173,0.421 0.2607,0.8721 0.258,1.3272 v 10.36 c 0,0.4534 -0.0896,0.9024 -0.2637,1.3211 -0.1742,0.4186 -0.4294,0.7988 -0.7509,1.1185 -0.3216,0.3197 -0.7031,0.5726 -1.1228,0.7443 -0.4197,0.1717 -0.8692,0.2587 -1.3226,0.2561 z"
     fill="#a15808"
     id="path2" />
  <path
     fill-rule="evenodd"
     clip-rule="evenodd"
     d="m 30.5401,30.2999 h -14.54 c -0.9088,-0.0105 -1.7766,-0.3803 -2.4137,-1.0286 -0.637,-0.6483 -0.9916,-1.5224 -0.9863,-2.4314 v -7.9 l -2.44,-4.18 c -0.1031,-0.1744 -0.1579,-0.3733 -0.1586,-0.576 -8e-4,-0.2026 0.0525,-0.4019 0.1544,-0.5771 0.1019,-0.1752 0.2487,-0.3201 0.4252,-0.4198 0.1765,-0.0996 0.3764,-0.1504 0.579,-0.1471 h 19.38 c 0.4535,-0.0026 0.9029,0.0844 1.3226,0.2561 0.4197,0.1717 0.8013,0.4247 1.1228,0.7444 0.3216,0.3197 0.5767,0.6998 0.7509,1.1185 0.1741,0.4187 0.2637,0.8676 0.2637,1.321 v 10.36 c 0.0027,0.4552 -0.085,0.9063 -0.2579,1.3273 -0.173,0.421 -0.4277,0.8034 -0.7496,1.1253 -0.3218,0.3218 -0.7043,0.5765 -1.1253,0.7495 -0.4209,0.1729 -0.8721,0.2606 -1.3272,0.2579 z"
     fill="#ffffff"
     id="path3" />
  <path
     d="m 30.1201,16.8201 h -13.62 c -0.5081,0 -0.92,0.4119 -0.92,0.92 0,0.5081 0.4119,0.92 0.92,0.92 h 13.62 c 0.5081,0 0.92,-0.4119 0.92,-0.92 0,-0.5081 -0.4119,-0.92 -0.92,-0.92 z"
     fill="#ff8906"
     id="path4" />
  <path
     d="m 30.1201,20.48 h -13.62 c -0.5081,0 -0.92,0.4119 -0.92,0.92 0,0.5081 0.4119,0.92 0.92,0.92 h 13.62 c 0.5081,0 0.92,-0.4119 0.92,-0.92 0,-0.5081 -0.4119,-0.92 -0.92,-0.92 z"
     fill="#ff8906"
     id="path5" />
  <path
     d="m 26.4201,24.22 h -9.92 c -0.5081,0 -0.92,0.4119 -0.92,0.92 0,0.5081 0.4119,0.92 0.92,0.92 h 9.92 c 0.5081,0 0.92,-0.4119 0.92,-0.92 0,-0.5081 -0.4119,-0.92 -0.92,-0.92 z"
     fill="#ff8906"
     id="path6" />
</svg>
