<?xml version="1.0" encoding="UTF-8" standalone="no"?>
<svg
   height="240.01666"
   version="1.1"
   viewBox="0 0 167.23039 240.01666"
   width="167.23039"
   id="svg2"
   sodipodi:docname="peep_human_person_avatar_icon_192388.svg"
   xmlns:inkscape="http://www.inkscape.org/namespaces/inkscape"
   xmlns:sodipodi="http://sodipodi.sourceforge.net/DTD/sodipodi-0.dtd"
   xmlns="http://www.w3.org/2000/svg"
   xmlns:svg="http://www.w3.org/2000/svg">
  <defs
     id="defs2" />
  <sodipodi:namedview
     id="namedview2"
     pagecolor="#ffffff"
     bordercolor="#000000"
     borderopacity="0.25"
     inkscape:showpageshadow="2"
     inkscape:pageopacity="0.0"
     inkscape:pagecheckerboard="0"
     inkscape:deskcolor="#d1d1d1" />
  <title
     id="title1" />
  <desc
     id="desc1" />
  <g
     fill="none"
     fill-rule="evenodd"
     id="Introduction"
     stroke="none"
     stroke-width="1"
     transform="translate(-39.08469,-45.862907)">
    <g
       id="variations"
       transform="translate(-2046,-2054)">
      <g
         id="images"
         transform="translate(126,110)">
        <g
           id="a-person/bust"
           transform="translate(1920,1944)">
          <g
             fill-rule="evenodd"
             id="body/Blazer-Black-Tee"
             transform="translate(31.056338,135.05284)">
            <path
               d="m 155.39909,48.06763 c -2.9326,-13.898818 -13.33299,-24.683982 -27.3206,-30.056717 -2.68869,-1.521309 -5.295,-8.049034 -8.90845,-9.2444975 -0.57923,-0.1916329 0.33504,1.3334575 0,1.4245365 -1.19502,0.324863 -2.53402,0.358786 -3.85344,-0.8143821 -2.3581,-2.0967146 -3.09791,-8.2223296 -4.53165,-10.9909047 -7.56147,-14.6013462 -26.440858,-8.8882742 -28.970154,7.2531818 -1.763584,1.1499347 -4.25664,2.1629374 -6.176345,3.0895861 -1.976784,0.9542004 -3.715607,3.2653789 -5.752765,4.0916739 -1.817661,0.737264 -4.812647,0.214973 -6.644209,0.857704 -8.424101,2.956179 -15.559058,6.686346 -21.152808,14.24412 -1.178662,1.594004 -2.507324,3.553644 -3.57993,5.163922 -5.529718,6.368195 -9.370563,13.505918 -12.908028,21.163773 -9.897042,22.477315 -12.589014,47.364654 -15.004225,71.582444 0.05493,4.23736 -2.7557747,15.98717 1.401338,18.01867 -0.248451,0.25763 -0.158451,0.77523 0.302535,0.77079 10.540775,-0.10652 21.057042,0.83716 31.434296,2.67189 5.006831,0.88535 9.986831,2.09934 15.086831,2.29886 10.586831,-0.0731 21.135634,-1.84784 31.708521,-0.16845 12.710333,0 28.157283,-0.3705 42.297363,-0.91429 13.2153,-0.50822 26.50141,0.6396 39.55299,-1.6086 1.0331,-0.16358 1.5376,-1.42407 1.32105,-2.32739 -1.53126,-5.58176 -2.28295,-11.32668 -3.14218,-17.03969 0.17113,-3.66439 -0.135,-7.48983 -1.49007,-10.90293 -3.54042,-23.040983 -8.08035,-45.9317 -13.67007,-68.5633 z"
               fill="#ffffff"
               id="ðŸŽ¨-Background" />
            <path
               d="m 151.13417,78.35345 c -0.27887,1.354756 -0.66972,2.709511 -1.18944,3.992619 -0.5007,1.238301 -1.25493,2.34789 -1.77443,3.571608 -0.0697,0.164854 -0.18381,0.28955 -0.32134,0.384658 l 0.0429,0.332877 v 0 l 0.0395,0.332876 c 0.25914,2.246352 0.55056,4.486493 0.80295,6.732534 l 0.12261,1.123568 c 0.49627,4.689652 1.28008,9.35627 1.88853,14.03345 0.59577,4.57996 1.20232,9.15992 1.8507,13.73354 0.66972,4.71522 1.35211,9.42411 2.14859,14.12031 0.33627,1.98335 0.68721,3.96508 1.05282,5.9452 l 0.28239,1.51547 c 2.90705,0.69957 3.70141,4.75327 0.74155,6.24963 -1.34345,0.67632 -3.0695,0.51358 -4.17676,-0.5493 -1.15061,-1.10771 -1.19838,-3.10534 -1.46542,-4.60569 l -0.25725,-1.39422 c -1.92492,-10.48373 -3.59558,-21.08822 -4.37662,-31.71999 -0.20071,-2.74523 -0.36972,-5.49278 -0.47958,-8.24266 -0.10439,-2.5864 -0.0545,-5.172623 -0.0944,-7.759155 l -0.0133,-0.705426 c -0.061,-2.758122 -0.0106,-5.512016 0.0613,-8.270137 0.008,-0.336047 0.0232,-0.672094 0.0401,-1.010255 -0.097,-0.114129 -0.1669,-0.249393 -0.19627,-0.38043 l -0.0382,-0.173307 c -0.0951,-0.445949 0.0127,-0.967985 0.35515,-1.287124 0.14767,-1.878904 0.34204,-3.755694 0.39485,-5.632485 0.004,-0.154286 0.22606,-0.149847 0.23895,0 0.12465,1.597808 0.37373,3.199843 0.62303,4.799765 1.60352,-1.289237 2.78873,-3.415421 3.48802,-5.19499 0.0507,-0.128924 0.23895,-0.08243 0.20916,0.05706 z M 113.19469,3.6579029 c 0.2662,1.2173777 0.79225,2.3102701 1.49789,3.326865 0.33612,0.4861057 0.71831,0.9383953 1.17676,1.3167123 0.39317,0.3231546 0.84105,0.5345049 1.25915,0.8158122 0.60845,-0.095319 1.24437,0.1352642 1.67113,0.5831154 l -0.0674,-0.6549745 c -0.0213,-0.2113503 0.32957,-0.2536204 0.36971,-0.048822 1.8483,9.3251277 3.53401,18.6562717 4.99315,28.0488667 l 0.63959,4.147913 0.60181,3.894019 c 0.99923,6.488811 1.96577,12.975033 2.69362,19.511237 0.96972,8.722638 1.785,17.468313 2.38078,26.226457 0.59789,8.81986 0.9657,17.645636 1.22767,26.482406 0.0653,2.22763 0.13521,4.45315 0.20261,6.68057 l 0.45127,-2.66316 c 0.45038,-2.66371 0.89202,-5.3299 1.27056,-8.00559 1.35845,-9.57628 2.44458,-19.220409 2.97465,-28.878907 0.48612,-8.838669 0.32345,-17.852759 -1.92444,-26.463381 -0.56641,-2.166341 -1.25937,-4.298865 -2.09577,-6.376439 -0.81148,-2.020297 -1.91831,-3.893072 -2.79106,-5.88378 -1.01408,-2.316399 -1.31831,-4.501762 -0.79627,-6.995695 0.45634,-2.172681 1.25704,-4.216438 1.4005,-6.452525 0.26852,-4.150919 -1.0817,-8.171013 -2.98923,-11.803913 -0.50303,-0.957417 -1.03331,-1.902153 -1.58683,-2.838646 -1.67514,-2.829769 -3.56408,-5.556399 -5.52444,-8.1705913 -0.10563,-0.1394912 0.1181,-0.2937769 0.2324,-0.1796477 1.78711,1.766889 3.74134,3.504188 5.34929,5.433816 0.78148,0.938395 1.54416,1.895601 2.26669,2.878591 7.92697,1.325166 14.73824,6.264211 19.39437,12.786693 5.2838,7.401487 7.95634,16.309902 9.93401,25.082841 2.1993,9.749801 4.05423,19.588157 6.02958,29.386145 2.04486,10.138685 4.07937,20.277159 6.13711,30.413519 1.02254,5.03204 2.04528,10.0645 3.0655,15.09886 0.5176,2.54889 1.06077,5.09143 1.62887,7.63186 0.29176,1.30192 0.60444,2.60173 0.87486,3.90787 0.30401,1.47311 0.0209,2.41552 -0.97606,3.49785 -0.36782,0.40156 -0.9488,0.39522 -1.40514,0.18176 l -0.14265,-0.0672 -0.13788,-0.0666 c -0.56467,-0.27762 -1.00737,-0.5653 -1.35869,-1.18313 -0.38684,-0.67823 -0.4481,-1.43063 -0.58099,-2.18516 -0.24528,-1.38878 -0.48803,-2.77714 -0.7331,-4.16782 -0.36618,-2.07969 -0.76433,-4.15343 -1.16957,-6.22667 l -2.03319,-10.361 c -0.54217,-2.76261 -1.08513,-5.52496 -1.63125,-8.28615 -1.95,-9.87428 -3.90212,-19.746457 -5.85402,-29.618629 -1.87415,-9.479272 -3.5326,-19.02364 -5.66619,-28.447961 l -0.12131,-0.530928 -0.12337,-0.53022 C 151.3015,45.77978 148.6358,37.920903 143.79891,31.036431 140.07638,25.742106 134.90687,21.0142 128.81793,18.621504 c 0.42908,0.617354 0.84106,1.247178 1.23401,1.889683 2.46761,4.032563 4.26951,8.819647 3.84697,13.621526 -0.20683,2.345988 -1.09838,4.65182 -1.01408,7.01683 0.0782,2.100822 1.37768,3.94591 2.27556,5.773879 2.03852,4.142677 3.51338,8.545103 4.46409,13.061448 1.90774,9.069041 1.90141,18.400368 1.24415,27.606575 -0.71408,10.007648 -2.07021,20.012975 -3.61457,29.922975 -0.79226,5.08297 -1.84648,10.12389 -2.65374,15.19841 -0.39908,2.50218 -0.94225,4.99843 -1.4176,7.48814 l -0.22655,1.18949 c -0.12684,0.66013 -0.25844,1.31813 -0.41045,1.96914 l -0.0938,0.38973 v 0.0698 c -0.004,0.47997 -0.13542,0.87731 -0.34669,1.19434 -0.28922,0.92761 -0.64838,1.8324 -1.12584,2.70105 -0.24507,0.44384 -0.60021,0.69302 -0.98683,0.78411 -0.38874,0.88979 -1.26972,1.57435 -2.32162,1.57039 l -13.83613,-0.0529 c -8.03662,-0.0319 -16.073239,-0.0847 -24.109858,-0.12914 -2.027958,-0.0104 -4.054014,-0.0484 -6.080071,-0.10123 -1.899295,-0.0528 -3.720422,-0.2811 -5.598591,-0.51781 -2.121338,-0.2663 -3.270423,-1.769 -2.953521,-3.88885 0.06972,-0.46729 0.145563,-0.93205 0.217605,-1.39702 -0.422535,0.13949 -0.925352,0.074 -1.265493,-0.25785 L 73.725985,143.412 c -0.442048,-0.43747 -0.837411,-0.86705 -1.117723,-1.45065 -0.289437,-0.60003 -0.524155,-1.23408 -0.779789,-1.84699 -0.551409,-1.31883 -1.087817,-2.64188 -1.609859,-3.97127 -1.045564,-2.65879 -2.091338,-5.32815 -3.063381,-8.01462 -1.924436,-5.31969 -3.627464,-10.71969 -5.108239,-16.18077 -2.640845,-9.74324 -4.550915,-19.674595 -5.755141,-29.694712 L 56.003942,79.864833 55.920222,79.1594 c -0.456653,-3.883692 -0.840969,-7.827675 -0.659359,-11.703046 0.112183,-2.426513 0.488029,-4.871624 1.394578,-7.137511 0.836408,-2.090043 2.127253,-3.878066 3.354718,-5.746403 l 0.140463,-0.215667 0.141214,-0.220924 c 1.07348,-1.696976 1.92764,-3.471115 1.970436,-5.531941 0.04337,-2.09134 -0.565662,-4.126657 -1.246621,-6.084538 L 60.845958,42.036478 60.732049,41.716892 C 59.28339,37.670416 57.634785,33.681163 58.178493,29.277997 58.981521,22.79377 62.910887,17.567077 67.854761,13.536627 63.45807,14.40739 59.106169,16.12757 55.265324,18.308917 50.729197,20.88739 46.645394,24.29013 43.123563,28.130365 36.468634,35.387923 31.717225,44.095766 27.828,53.086607 c -4.071338,9.409315 -7.090352,19.268807 -9.365493,29.257222 -2.288028,10.045479 -3.819718,20.251581 -4.865704,30.497851 -0.52162,5.09988 -0.93169,10.21223 -1.27162,15.32712 -0.173239,2.62074 -0.304225,5.24571 -0.507042,7.86223 -0.202817,2.6144 -0.293873,5.26875 -0.931902,7.81362 -0.297887,1.18568 -2.3070418,1.30614 -2.5223235,0 C 7.88614,140.92764 8.0196651,137.91109 8.1530081,134.9573 l 0.012105,-0.26834 c 0.1311972,-2.942 0.3023239,-5.88188 0.5049296,-8.82177 0.4142957,-6.00868 0.9676056,-12.00892 1.6901403,-17.99013 2.533099,-20.995541 7.204437,-41.881177 16.367113,-61.046421 4.314084,-9.026771 9.851408,-17.797809 17.554225,-24.315852 3.667394,-3.10072 7.801901,-5.575632 12.257535,-7.367671 3.984719,-1.604148 8.032606,-2.362896 12.266409,-2.360782 2.123239,-1.627398 4.402817,-3.0455583 6.68007,-4.2568068 0.137324,-0.073761 0.280986,0.103773 0.167113,0.2179022 -0.05916,0.057065 -0.116409,0.1160313 -0.175352,0.1711937 0.257746,0.016908 0.523732,0.1373777 0.762465,0.3888845 0.836831,0.8768924 1.542464,1.9740114 2.173943,3.1129784 0.961268,1.200681 1.878169,2.441096 2.837535,3.628885 1.535705,1.902152 3.107536,3.776829 4.698592,5.636712 2.671979,3.125737 5.430991,6.192292 8.308113,9.135509 l 0.480619,0.489383 c 1.491338,1.511366 3.002113,3.320313 4.765986,4.516556 l 0.09418,0.06267 c 0.744201,0.485029 1.271921,0.573118 1.906531,-0.151222 0.57696,-0.659413 1.05719,-1.424522 1.5508,-2.151493 l 0.1142,-0.167019 c 2.52043,-3.662701 4.85705,-7.460666 6.97183,-11.370646 0.96396,-1.779378 1.88095,-3.584606 2.75097,-5.40981 l 0.2596,-0.548155 c 0.47324,-1.006027 0.98662,-1.993033 1.37725,-3.028861 0.0909,-0.242842 0.17958,-0.485894 0.2662,-0.726834 -1.33099,-0.872876 -2.36176,-2.762348 -2.73571,-4.2418 -0.38873,-1.5365167 -0.19225,-3.1134012 0.5005,-4.5186693 0.13098,-0.2641879 0.57042,-0.1988806 0.6338,0.082215 z M 47.535237,66.097162 c -0.184188,5.841934 -0.295948,11.689997 -0.570807,17.527492 l -0.09486,1.992821 c 0.428662,0.477864 0.680071,1.029276 0.479367,1.786122 -0.07796,0.28955 -0.308451,0.551624 -0.595775,0.648845 l -0.08958,1.852882 c -0.40772,8.33666 -0.885674,16.656016 -1.759011,24.971696 -1.092253,10.40689 -2.355633,20.79666 -3.61669,31.18474 -0.179577,1.47099 -1.202324,2.63744 -2.793169,2.42207 -1.609648,-0.2179 -2.262464,-1.61915 -2.051197,-3.07958 0.830282,-5.7295 1.628662,-11.46364 2.328169,-17.21216 l 0.79646,-6.5495 c 0.998709,-8.1871 2.020905,-16.37293 3.19861,-24.533999 0.492254,-3.410982 1.003522,-6.820063 1.516691,-10.229354 l -0.179366,-0.232486 c -0.73331,-0.952978 -1.491761,-1.885033 -2.241761,-2.823428 -1.440634,-1.809159 -2.862465,-3.603734 -4.182887,-5.497433 -0.06571,-0.09511 0.0676,-0.234598 0.162464,-0.162528 1.850705,1.367436 3.602324,2.829769 5.364296,4.315773 l 1.542254,1.305933 c 0.887324,-5.890332 1.766197,-11.782778 2.549788,-17.687906 0.01923,-0.147733 0.241057,-0.158512 0.237005,0 z m 26.621636,-55.90621 c -1.113591,1.0502 -2.252112,2.077573 -3.374155,3.121644 l -0.410982,0.384249 -0.409081,0.386019 c -1.971894,1.870702 -3.861153,3.818019 -5.435359,6.054233 -2.890141,4.106536 -4.611972,9.113213 -3.410071,14.126653 0.997395,4.152822 3.285423,7.917182 3.900212,12.173777 0.308239,2.132525 0.15845,4.275617 -0.644578,6.289574 -0.819718,2.054536 -2.129577,3.815084 -3.306338,5.668626 -2.556338,4.028336 -2.90493,8.449784 -2.651197,13.116399 0.266197,4.873738 0.825845,9.749378 1.516901,14.578943 1.398381,9.785519 3.506831,19.469591 6.297676,28.952881 1.396691,4.74904 3.046479,9.39663 4.68824,14.06324 0.817394,2.32274 1.770422,4.59053 2.752606,6.84754 0.517605,1.188 1.048098,2.36924 1.58683,3.54857 -0.198802,-1.66523 -0.198802,-3.37505 -0.295986,-5.02992 -0.139436,-2.37135 -0.316901,-4.73848 -0.479577,-7.10771 -0.331479,-4.80822 -0.627253,-9.62067 -0.891338,-14.43311 -0.935915,-17.161647 -1.624648,-34.338086 -1.574155,-51.527205 0.02556,-8.595616 0.200916,-17.191233 0.570634,-25.778607 0.173324,-4.043835 0.508969,-8.083805 0.812322,-12.12197 l 0.06444,-0.865294 c 0.26831,-3.624657 0.589437,-7.257769 1.140634,-10.850724 -0.163192,-0.368407 -0.304851,-0.74149 -0.40999,-1.124147 l -0.03769,-0.143955 0.02746,0.0042 c -0.02535,-0.112227 -0.0338,-0.224031 -0.02746,-0.333933 z m 9.62962,-14.7692009 c 0.02303,-0.099335 0.164577,-0.090881 0.189929,0 0.627465,2.1135029 0.405634,4.43835614 -0.135,6.5645401 -0.291549,1.1518591 -0.705633,2.2699021 -1.206337,3.3477886 l -0.175219,0.3772108 c -0.429009,0.9179803 -0.912061,1.8638069 -1.747528,2.4358617 -0.34838,0.2388258 -0.971831,0.2536203 -1.320423,0 L 79.214138,8.0122012 C 79.184873,7.989344 79.156,7.9660955 79.127831,7.9421425 78.80269,7.6695006 78.641915,7.0671523 78.791916,6.6698137 c 0.386619,-1.0250489 1.263591,-1.777456 1.869718,-2.6904892 0.536831,-0.8115852 1.012183,-1.6675538 1.407042,-2.5573386 0.851409,-1.92540116 1.233803,-3.9691585 1.717817,-6.0002348 z"
               fill="#000000"
               id="ðŸ–-Ink" />
          </g>
          <g
             fill-rule="evenodd"
             id="head/Hijab"
             transform="translate(78.591549,38.043053)">
            <path
               d="m 54.989192,22.228448 c 31.798468,1.007103 33.716427,16.116932 33.716427,41.456729 0,25.339798 -16.49569,41.307503 -22.569647,44.095773 -6.073957,2.78826 -22.067589,14.76434 -36.500882,9.24542 -14.433293,-5.51893 -10.253609,-28.835809 -10.253609,-38.854336 0,-10.018527 3.809243,-56.950689 35.607711,-55.943586 z"
               fill="#ffffff"
               id="Path-2" />
            <path
               d="M 67.889197,99.458658 C 62.049761,102.71979 55.363352,102.8466 49.082155,100.79439 45.315253,99.566658 41.861239,97.668521 38.628634,95.398619 35.816662,93.422494 33.306803,91.230791 30.820183,88.903613 28.773,84.387269 26.949972,79.879167 26.096239,74.965273 c -0.764788,-4.410881 -0.866197,-8.990842 0.02113,-13.393268 6.562183,-5.4 13.084014,-10.844384 19.597183,-16.305464 3.316902,-2.781581 6.642254,-5.547945 10.007747,-8.270348 1.709155,-1.382231 3.40162,-2.785597 5.104225,-4.174169 0.280986,-0.228258 0.560071,-0.456516 0.841056,-0.684775 3.515282,2.574247 7.284296,4.780955 10.774648,7.397261 1.827254,1.371663 3.604014,2.832093 5.296268,4.368399 0.887324,0.805456 1.753732,1.636062 2.598803,2.487804 0.773028,0.777981 1.518803,1.893699 2.615493,2.187687 0.15,0.03994 0.291338,0.0484 0.424436,0.02938 1.466198,12.841643 2.507747,26.708336 -3.773239,38.370646 C 76.863848,92.065627 72.978848,96.613885 67.8892,99.45866 Z M 29.90138,104.17832 c -0.804084,-0.73698 0.394226,-1.92963 1.19493,-1.19582 5.029436,4.60871 11.604507,7.0517 18.245915,8.18243 1.07155,0.18282 0.614578,1.81169 -0.449366,1.63036 -6.934014,-1.18061 -13.749084,-3.81319 -18.991479,-8.61697 z m -6.03507,7.07115 c -0.96,-0.51527 -0.105423,-1.97423 0.852887,-1.46001 3.91838,2.1023 8.216197,3.19456 12.575493,3.93217 1.072183,0.18134 0.614789,1.81022 -0.449155,1.63036 -4.507394,-0.76255 -8.930282,-1.93026 -12.979225,-4.10252 z M 39.813845,40.018713 c 3.251408,-2.918959 6.745775,-5.696313 10.436831,-8.039976 3.735,-2.371351 7.814577,-3.789511 12.223733,-3.823327 -0.308451,0.24728 -0.602113,0.522035 -0.900001,0.777557 -0.832183,0.712462 -1.662676,1.42894 -2.492957,2.143304 -1.660564,1.430841 -3.325352,2.859358 -4.964789,4.313659 -3.228169,2.86591 -6.466901,5.717026 -9.688732,8.589276 -6.192254,5.52047 -12.251198,11.161198 -18.179578,16.965088 0.0319,-0.141604 0.0657,-0.283209 0.0993,-0.424602 1.962676,-8.200603 7.301408,-14.965926 13.466197,-20.500979 z M 65.301169,28.512592 c 0.02113,-0.06341 0.03613,-0.124908 0.04458,-0.183875 8.461267,1.103249 15.528168,7.33153 17.864577,15.532133 -0.202817,0.283209 -0.314789,0.619256 -0.272535,0.976227 0.02113,0.179859 0.04225,0.361621 0.06338,0.541268 C 82.711734,45.09112 82.413847,44.822494 82.160537,44.56676 81.317368,43.712905 80.453495,42.882087 79.56596,42.072615 77.751171,40.417954 75.866875,38.87087 73.880748,37.427347 70.426734,34.916506 66.687086,32.608561 62.569481,31.403864 c 0.270422,-0.221918 0.541056,-0.443836 0.813591,-0.66364 0.813169,-0.661738 1.567606,-1.20681 1.918099,-2.227632 z M 80.470394,19.743668 C 75.275324,14.064686 68.081451,9.9053119 60.505606,8.4596759 53.271591,7.077445 45.782155,7.9883648 38.947859,10.674627 24.646944,16.296545 13.363141,28.658635 8.079338,42.983746 4.9990563,51.329969 3.9891972,60.479324 4.9147606,69.313766 c 0.9209155,8.794074 3.5680986,17.876008 8.3850004,25.357808 0.441549,0.684986 0.925352,1.342075 1.432394,1.978239 -0.226056,2.5827 -1.088028,5.114677 -2.444366,7.316947 -0.07289,0.11793 -0.149789,0.23375 -0.225845,0.34979 -1.388874,1.04047 -2.8295074,2.01691 -4.2359158,3.02484 -1.2188029,0.8733 -2.4251409,1.76921 -3.5712676,2.73656 -1.0819015,0.91325 -2.3383099,1.93027 -3.0707747,3.16286 -0.60021125,1.00962 -0.84528167,2.38234 -0.025986,3.34525 0.9872535,1.15989 2.6600704,0.75093 3.9973944,0.75093 0.114507,0 0.2288028,0.003 0.3430986,0.004 0.4016197,0.25256 0.8152816,0.48082 1.2160563,0.69322 4.0499998,2.14754 8.1147888,4.27161 12.1838028,6.38511 8.104437,4.21221 16.174859,8.59371 24.445775,12.47178 3.832605,1.79859 7.935422,3.37082 12.228169,3.36473 4.026972,-0.006 7.666901,-1.6063 10.810563,-4.03894 3.583099,-2.77101 6.579085,-6.28978 9.485916,-9.73881 1.161972,-1.38054 2.300704,-2.77735 3.41831,-4.1934 2.146478,-0.71648 4.276056,-0.92571 6.19014,0.45652 1.535916,1.10959 3.55986,-0.39945 3.595775,-2.06511 0.01268,-0.59135 -0.01246,-1.17489 -0.07606,-1.74977 -0.384296,-3.55089 -2.121127,-6.76321 -4.077465,-9.74303 -1.068803,-1.62972 -2.194859,-3.22986 -3.327465,-4.81499 -0.266197,-0.37387 -0.528169,-0.74796 -0.78169,-1.12861 C 85.358911,96.540101 88.967362,89.111138 91.185672,81.34803 93.516165,73.179553 94.308419,64.708633 93.7887,56.244054 92.989901,43.271183 89.432366,29.541868 80.470394,19.743668 Z"
               fill="#000000"
               id="path1" />
          </g>
          <g
             fill="#000000"
             fill-rule="evenodd"
             id="face/Smiling"
             transform="translate(112.1831,77.354207)">
            <path
               d="m 30.968993,50.919898 c -1.420199,-0.579597 -2.687376,-1.546402 -3.613804,-2.781433 -0.322085,-0.429348 -0.405596,-0.882732 -0.33803,-1.29741 0.07597,-0.466276 0.351722,-0.888873 0.72778,-1.172337 0.377224,-0.284343 0.849082,-0.424574 1.305271,-0.353088 0.396402,0.06212 0.791,0.279241 1.103296,0.729548 l 0.06525,0.09005 c 0.550778,0.745422 1.268492,1.357032 2.086277,1.75125 0.788212,0.379963 1.669747,0.557306 2.581992,0.454177 1.737429,-0.19634 2.934953,-1.136329 4.20779,-2.412817 0.157772,-0.16116 0.315645,-0.327372 0.474284,-0.496259 0.100183,-0.153096 0.239212,-0.251491 0.393572,-0.303117 0.171389,-0.05732 0.365271,-0.05408 0.542852,0.0079 0.171277,0.0598 0.32439,0.173105 0.427057,0.323913 0.09758,0.14333 0.152899,0.320396 0.134948,0.524065 -0.116505,1.322871 -0.807846,2.503477 -1.789869,3.430502 -1.090661,1.02958 -2.536412,1.741851 -3.897523,1.991666 -1.499545,0.275182 -3.027542,0.07803 -4.411139,-0.486629 z M 36.087529,30.51204 c 1.595362,0.970108 4.026203,3.232209 2.309961,5.637224 -2.020181,2.120581 -4.928786,-0.31081 -6.362095,-1.410433 -1.329032,-0.852215 -2.822274,1.339617 -1.589198,2.334721 10.357127,7.671008 14.560269,-6.307842 6.448244,-7.70212 -0.893164,-0.153644 -1.224887,0.840495 -0.806912,1.140608 z M 17.527458,21.588672 c 0.176266,-2.188802 3.508521,-2.68584 3.84,-0.519922 0.296831,1.940196 -0.05261,3.722513 -0.926197,5.469323 -0.834719,1.668822 -2.932715,0.890238 -3.091377,-0.629371 -0.21268,-2.036972 0.06793,-2.95847 0.177574,-4.32003 z m 25.36557,-0.96902 c 0.464578,-0.608689 1.135352,-1.024204 1.939014,-0.789394 2.510916,0.73402 1.770845,4.300133 0.889014,6.035953 -0.479155,0.942623 -2.027957,1.18166 -2.727887,0.351687 -1.140845,-1.353487 -1.687183,-4.056446 -0.236831,-5.389644 0.0393,-0.0689 0.08303,-0.138434 0.13669,-0.208602 z m -22.487134,-8.608509 0.396628,-0.06945 c 1.227,-0.21229 2.752633,-0.416276 3.620626,0.57056 0.460352,0.523304 0.618803,1.495938 0,1.996838 -1.088451,0.881331 -2.291831,0.539789 -3.596197,0.614395 -1.07493,0.06171 -2.108028,0.239672 -3.143451,0.535773 -2.271549,0.64948 -4.122465,1.835155 -6.062535,3.137073 -0.254578,0.170771 -0.514437,-0.15492 -0.392958,-0.393112 1.11993,-2.19445 3.290282,-3.997057 5.464225,-5.095867 1.160282,-0.586497 2.43,-1.073025 3.713662,-1.29621 z m 20.198235,-0.983014 0.303576,0.06215 c 3.303642,0.690821 7.595846,2.070794 9.160279,5.317019 0.05961,0.459028 -0.0034,0.557407 -0.05459,0.621682 l -0.01705,0.02139 c -0.0422,0.05489 -0.07588,0.130549 -0.274764,0.193024 -0.05519,-0.01316 -0.110931,-0.02709 -0.167261,-0.04186 -0.717109,-0.188001 -1.284481,-0.447 -1.833757,-0.715742 L 47.125001,16.192275 C 46.434039,15.85335 45.736976,15.52676 44.998249,15.285659 43.421742,14.771244 41.80017,14.408871 40.153474,14.215372 c -0.356909,-0.0419 -0.700589,-0.162408 -0.971729,-0.368932 -0.257365,-0.196032 -0.453976,-0.467444 -0.543619,-0.828209 -0.116178,-0.466887 -0.08279,-0.820359 0.167616,-1.24156 0.188291,-0.316313 0.457705,-0.535559 0.767061,-0.661458 0.315374,-0.128348 0.674425,-0.158606 1.031326,-0.08708 z"
               id="path2" />
          </g>
          <g
             id="facial-hair/*-None"
             transform="translate(104.57745,109.47938)" />
          <g
             id="accessories/*-None"
             transform="translate(88.521127,88.978474)" />
        </g>
      </g>
    </g>
  </g>
</svg>
