<?xml version="1.0" encoding="UTF-8" standalone="no"?>
<svg
   width="21.101347"
   height="19.75"
   viewBox="0 0 21.101347 19.75"
   fill="none"
   version="1.1"
   id="svg4"
   sodipodi:docname="ShoppingCartorange-cart-icon.svg"
   inkscape:export-filename="ShoppingCartorange-cart-icon.svg"
   inkscape:export-xdpi="92.160004"
   inkscape:export-ydpi="92.160004"
   xmlns:inkscape="http://www.inkscape.org/namespaces/inkscape"
   xmlns:sodipodi="http://sodipodi.sourceforge.net/DTD/sodipodi-0.dtd"
   xmlns="http://www.w3.org/2000/svg"
   xmlns:svg="http://www.w3.org/2000/svg">
  <defs
     id="defs4" />
  <sodipodi:namedview
     id="namedview4"
     pagecolor="#ffffff"
     bordercolor="#000000"
     borderopacity="0.25"
     inkscape:showpageshadow="2"
     inkscape:pageopacity="0.0"
     inkscape:pagecheckerboard="0"
     inkscape:deskcolor="#d1d1d1" />
  <path
     d="M 17.75,15.5 H 6.17139 C 5.99574,15.5 5.82567,15.4384 5.69082,15.3258 5.55597,15.2133 5.4649,15.057 5.43348,14.8842 L 2.93015,1.11584 C 2.89873,0.94303 2.80766,0.78673 2.67281,0.67419 2.53796,0.56164 2.36789,0.5 2.19225,0.5 H 0.5"
     stroke="#ff8906"
     stroke-linecap="round"
     stroke-linejoin="round"
     id="path1" />
  <path
     d="m 6.5,19.25 c 1.03553,0 1.875,-0.8395 1.875,-1.875 0,-1.0355 -0.83947,-1.875 -1.875,-1.875 -1.03553,0 -1.875,0.8395 -1.875,1.875 0,1.0355 0.83947,1.875 1.875,1.875 z"
     stroke="#ff8906"
     stroke-linecap="round"
     stroke-linejoin="round"
     id="path2" />
  <path
     d="m 17.75,19.25 c 1.0355,0 1.875,-0.8395 1.875,-1.875 0,-1.0355 -0.8395,-1.875 -1.875,-1.875 -1.0355,0 -1.875,0.8395 -1.875,1.875 0,1.0355 0.8395,1.875 1.875,1.875 z"
     stroke="#ff8906"
     stroke-linecap="round"
     stroke-linejoin="round"
     id="path3" />
  <path
     d="m 3.5,4.25 h 16.3513 c 0.1099,0 0.2184,0.02413 0.3179,0.07069 0.0995,0.04656 0.1876,0.11441 0.258,0.19875 0.0703,0.08434 0.1214,0.18311 0.1494,0.28934 0.028,0.10622 0.0323,0.2173 0.0126,0.32538 L 19.362,11.8842 C 19.3306,12.057 19.2395,12.2133 19.1046,12.3258 18.9698,12.4384 18.7997,12.5 18.6241,12.5 H 5"
     stroke="#ff8906"
     stroke-linecap="round"
     stroke-linejoin="round"
     id="path4" />
</svg>
