<?xml version="1.0" encoding="UTF-8" standalone="no"?>
<svg
   width="13.333304"
   height="13.333304"
   viewBox="0 0 13.333304 13.333304"
   fill="none"
   version="1.1"
   id="svg4"
   sodipodi:docname="Passwordpassword-ion.svg"
   xmlns:inkscape="http://www.inkscape.org/namespaces/inkscape"
   xmlns:sodipodi="http://sodipodi.sourceforge.net/DTD/sodipodi-0.dtd"
   xmlns="http://www.w3.org/2000/svg"
   xmlns:svg="http://www.w3.org/2000/svg">
  <defs
     id="defs4" />
  <sodipodi:namedview
     id="namedview4"
     pagecolor="#ffffff"
     bordercolor="#000000"
     borderopacity="0.25"
     inkscape:showpageshadow="2"
     inkscape:pageopacity="0.0"
     inkscape:pagecheckerboard="0"
     inkscape:deskcolor="#d1d1d1" />
  <path
     fill-rule="evenodd"
     clip-rule="evenodd"
     d="m 5.792574,6.666554 c 0,0.682 -0.55266,1.23466 -1.23466,1.23466 -0.682,0 -1.23467,-0.55266 -1.23467,-1.23466 0,-0.682 0.55267,-1.23467 1.23467,-1.23467 h 0.002 c 0.68133,6.7e-4 1.23266,0.55333 1.23266,1.23467 z"
     stroke="#4f5665"
     stroke-linecap="round"
     stroke-linejoin="round"
     id="path1" />
  <path
     d="m 5.794434,6.666744 h 4.21197 v 1.23467"
     stroke="#4f5665"
     stroke-linecap="round"
     stroke-linejoin="round"
     id="path2" />
  <path
     d="M 8.121424,7.901414 V 6.666744"
     stroke="#4f5665"
     stroke-linecap="round"
     stroke-linejoin="round"
     id="path3" />
  <path
     fill-rule="evenodd"
     clip-rule="evenodd"
     d="M 0.5,6.666664 C 0.5,2.042004 2.042004,0.5 6.666664,0.5 c 4.62464,0 6.16664,1.542004 6.16664,6.166664 0,4.62464 -1.542,6.16664 -6.16664,6.16664 -4.62466,0 -6.166664,-1.542 -6.166664,-6.16664 z"
     stroke="#4f5665"
     stroke-linecap="round"
     stroke-linejoin="round"
     id="path4" />
</svg>
