<?xml version="1.0" encoding="UTF-8" standalone="no"?>
<svg
   width="15.000191"
   height="12"
   viewBox="0 0 15.000191 12"
   fill="none"
   version="1.1"
   id="svg5"
   sodipodi:docname="EyeSlashpassword-visibility-icon.svg"
   xmlns:inkscape="http://www.inkscape.org/namespaces/inkscape"
   xmlns:sodipodi="http://sodipodi.sourceforge.net/DTD/sodipodi-0.dtd"
   xmlns="http://www.w3.org/2000/svg"
   xmlns:svg="http://www.w3.org/2000/svg">
  <defs
     id="defs5" />
  <sodipodi:namedview
     id="namedview5"
     pagecolor="#ffffff"
     bordercolor="#000000"
     borderopacity="0.25"
     inkscape:showpageshadow="2"
     inkscape:pageopacity="0.0"
     inkscape:pagecheckerboard="0"
     inkscape:deskcolor="#d1d1d1" />
  <path
     d="m 2.4999953,0.5 9.9999997,11"
     stroke="#4f5665"
     stroke-linecap="round"
     stroke-linejoin="round"
     id="path1" />
  <path
     d="m 9.1815453,7.84987 c -0.49063,0.44593 -1.1383,0.67873 -1.80056,0.64713 -0.66225,-0.0315 -1.28485,-0.3249 -1.73083,-0.81545 -0.44599,-0.49058 -0.67884,-1.13824 -0.64733,-1.80049 0.0315,-0.66226 0.32479,-1.28488 0.81533,-1.73091"
     stroke="#4f5665"
     stroke-linecap="round"
     stroke-linejoin="round"
     id="path2" />
  <path
     d="m 4.1246453,2.28711 c -2.54808,1.29035 -3.62465001,3.7129 -3.62465001,3.7129 0,0 2.00000001,4.49949 7.00000001,4.49949 1.1715,0.0094 2.3284,-0.2605 3.3747997,-0.7871"
     stroke="#4f5665"
     stroke-linecap="round"
     stroke-linejoin="round"
     id="path3" />
  <path
     d="m 12.538295,8.5687 c 1.3626,-1.22043 1.9619,-2.56869 1.9619,-2.56869 0,0 -2,-4.50049 -7.0000397,-4.50049 -0.43305,-7.1e-4 -0.86541,0.0345 -1.29264,0.10526"
     stroke="#4f5665"
     stroke-linecap="round"
     stroke-linejoin="round"
     id="path4" />
  <path
     d="m 7.9706953,3.54443 c 0.53136,0.10204 1.01531,0.3736 1.37927,0.77396 0.36393,0.40036 0.58833,0.90794 0.63933,1.44659"
     stroke="#4f5665"
     stroke-linecap="round"
     stroke-linejoin="round"
     id="path5" />
</svg>
