<?xml version="1.0" encoding="UTF-8" standalone="no"?>
<svg
   width="13.333367"
   height="13.333384"
   viewBox="0 0 13.333367 13.333384"
   fill="none"
   version="1.1"
   id="svg1"
   sodipodi:docname="Vectorprocess-icon.svg"
   xmlns:inkscape="http://www.inkscape.org/namespaces/inkscape"
   xmlns:sodipodi="http://sodipodi.sourceforge.net/DTD/sodipodi-0.dtd"
   xmlns="http://www.w3.org/2000/svg"
   xmlns:svg="http://www.w3.org/2000/svg">
  <defs
     id="defs1" />
  <sodipodi:namedview
     id="namedview1"
     pagecolor="#ffffff"
     bordercolor="#000000"
     borderopacity="0.25"
     inkscape:showpageshadow="2"
     inkscape:pageopacity="0.0"
     inkscape:pagecheckerboard="0"
     inkscape:deskcolor="#d1d1d1" />
  <path
     d="m 3.3333328,8.3333436 c -0.08755,-2e-5 -0.17425,0.0172 -0.25515,0.0507 -0.08089,0.03349 -0.15439,0.0826 -0.2163,0.14451 -0.06191,0.06191 -0.11102,0.13541 -0.14451,0.21631 -0.0335,0.08089 -0.05073,0.16759 -0.0507,0.25514 v 1.1881804 c -0.8593,-0.9717804 -1.33353,-2.2242904 -1.33334,-3.5215104 -1.2e-4,-0.19606 0.01162,-0.39194 0.03516,-0.58659 0.01079,-0.08704 0.0043,-0.17535 -0.0191,-0.25988 -0.0234,-0.08453 -0.06325,-0.1636 -0.11727,-0.2327 -0.05401,-0.0691 -0.12113,-0.12686 -0.19751,-0.16997 -0.07638,-0.04311 -0.16051997,-0.07073 -0.24758997,-0.08126 -0.08707,-0.01054 -0.175369,-0.00379 -0.259827,0.01986 -0.084458,0.02365 -0.163419,0.06373 -0.232358,0.11795 -0.068939,0.05422 -0.1265,0.12152 -0.169385,0.19802 -0.042885,0.07651 -0.070251,0.16073 -0.08053,0.24783 -0.030197,0.24777 -0.0451989958,0.49714 -0.044918995785,0.74674 C 9.0883422e-4,8.2574436 0.57264083,9.7950836 1.6112528,10.999984 H 0.66666983 c -0.176811,0 -0.34638,0.0703 -0.471404,0.1953 -0.125025,0.125 -0.1952619957848,0.2946 -0.1952619957848,0.4714 0,0.1768 0.070236995785,0.3464 0.1952619957848,0.4714 0.125024,0.125 0.294593,0.1953 0.471404,0.1953 H 3.3333328 c 0.10427,-0.0014 0.20671,-0.0276 0.2988,-0.0765 0.09209,-0.0489 0.17116,-0.1191 0.23062,-0.2047 0.00778,-0.0103 0.0177,-0.0179 0.02494,-0.0287 0.00444,-0.0066 0.00456,-0.0145 0.00871,-0.0213 0.03177,-0.0536 0.05558,-0.1116 0.07067,-0.1722 0.00987,-0.034 0.01688,-0.0687 0.02095,-0.1039 0.00191,-0.0206 0.012,-0.0383 0.012,-0.0594 V 9.0000236 c 3e-5,-0.08755 -0.0172,-0.17426 -0.0507,-0.25515 -0.03349,-0.0809 -0.0826,-0.15441 -0.14451,-0.21632 -0.06191,-0.06191 -0.13542,-0.11102 -0.21632,-0.14452 -0.08089,-0.03349 -0.1676,-0.05072 -0.25516,-0.05069 z m 1,-5.66667 h -1.18831 c 0.97187,-0.85926 2.2244,-1.33348 3.52165,-1.33333 0.19596,-4.7e-4 0.39176,0.01127 0.58626,0.03516 0.08695,0.01056 0.17512,0.00389 0.2595,-0.01963 0.08437,-0.02352 0.16328,-0.06343 0.23223,-0.11745 0.06895,-0.05401 0.12658,-0.12108 0.16961,-0.19737 0.04303,-0.07629 0.07061,-0.16031001 0.08117,-0.24726001 0.01056,-0.08695 0.00389,-0.175125 -0.01963,-0.259497 -0.02352,-0.084371 -0.06343,-0.163284 -0.11744,-0.232233 -0.05402,-0.068949 -0.12109,-0.126583 -0.19738,-0.169612 -0.07629,-0.043029 -0.16031,-0.070611 -0.24726,-0.081169 -0.24789,-0.029906 -0.49737,-0.0446909994 -0.74706,-0.044273999445 C 5.0759128,8.7359056e-4 3.5382828,0.57256259 2.3333328,1.6111336 V 0.66667359 c 0,-0.176809 -0.07023,-0.346378 -0.19526,-0.471403 -0.12502,-0.125024 -0.29459,-0.1952619994448 -0.4714,-0.1952619994448 -0.17681,0 -0.34638,0.070237999445 -0.47141,0.1952619994448 -0.12502,0.125025 -0.19526,0.294594 -0.19526,0.471403 V 3.3333436 c 0.00419,0.04406 0.01298,0.08757 0.02621,0.12981 l 1.6e-4,8.1e-4 c 0.01619,0.08203 0.04815,0.16015 0.09411,0.23 l 0.00761,0.01127 c 0.04405,0.06406 0.09927,0.11969 0.163,0.16422 0.00729,0.00534 0.01091,0.01351 0.01848,0.0186 0.00952,0.0063 0.0203,0.0083 0.03003,0.01408 0.03781,0.02274 0.07787,0.04151 0.11955,0.056 0.05632,0.01959 0.11504,0.03144 0.17456,0.03523 0.01155,6.1e-4 0.02128,0.00667 0.03296,0.00667 h 2.66666 c 0.17681,0 0.34638,-0.07024 0.47141,-0.19527 0.12502,-0.12502 0.19526,-0.29459 0.19526,-0.4714 0,-0.17681 -0.07024,-0.34638 -0.19526,-0.47141 -0.12503,-0.12502 -0.2946,-0.19526 -0.47141,-0.19526 z m 7.9736302,7.20271 c -0.0162,-0.082 -0.0481,-0.1602 -0.0942,-0.23004 l -0.0075,-0.0112 c -0.0441,-0.0641 -0.0993,-0.11976 -0.1631,-0.1643 -0.0073,-0.00529 -0.0109,-0.01351 -0.0184,-0.01856 -0.0072,-0.00476 -0.0157,-0.00491 -0.0231,-0.00939 -0.0845,-0.04702 -0.1772,-0.07765 -0.2731,-0.09029 -0.0211,-0.002 -0.0393,-0.0123 -0.0609,-0.0123 H 9.0000028 c -0.17681,0 -0.34638,0.07024 -0.4714,0.19527 -0.12503,0.12502 -0.19527,0.29461 -0.19527,0.47141 0,0.1768004 0.07024,0.3464004 0.19527,0.4714004 0.12502,0.125 0.29459,0.1953 0.4714,0.1953 h 1.1882602 c -0.9718302,0.8592 -2.2243502,1.3334 -3.5215902,1.3333 -0.19598,2e-4 -0.39178,-0.0117 -0.58627,-0.0358 -0.1756,-0.0213 -0.35248,0.028 -0.49173,0.1371 -0.13925,0.109 -0.22946,0.269 -0.25078,0.4446 -0.02133,0.1756 0.02798,0.3525 0.13707,0.4917 0.10909,0.1393 0.26903,0.2295 0.44463,0.2508 0.24791,0.0299 0.49738,0.0449 0.74708,0.0449 1.59076,-8e-4 3.12839,-0.5725 4.3332902,-1.6111 v 0.9445 c 0,0.1768 0.0703,0.3464 0.1953,0.4714 0.125,0.125 0.2946,0.1953 0.4714,0.1953 0.1768,0 0.3464,-0.0703 0.4714,-0.1953 0.125,-0.125 0.1953,-0.2946 0.1953,-0.4714 V 9.9999836 c -0.0042,-0.044 -0.013,-0.0875 -0.0262,-0.1298 z m 0.3597,-7.53604 c 0.1768,0 0.3464,-0.07024 0.4714,-0.19526 0.125,-0.12503 0.1953,-0.2946 0.1953,-0.47141 0,-0.17681 -0.0703,-0.34638 -0.1953,-0.4714 -0.125,-0.12503 -0.2946,-0.19526 -0.4714,-0.19526 H 9.9999628 c -0.0434,0.00418 -0.0862,0.01282 -0.1278,0.0258 l -0.0045,8.9e-4 c -0.0809,0.0162 -0.1581,0.04777 -0.22712,0.09302 l -0.01306,0.00883 c -0.06377,0.04398 -0.11915,0.09902 -0.16353,0.16252 -0.00525,0.0072 -0.01334,0.01074 -0.01831,0.01818 -0.00476,0.00716 -0.00493,0.01563 -0.0094,0.02291 -0.04758,0.08506 -0.07843,0.17844 -0.09091,0.27511 -0.0019,0.02059 -0.012,0.03833 -0.012,0.0594 v 2.66667 c 0,0.17681 0.07024,0.34638 0.19527,0.4714 0.12502,0.12503 0.29456,0.19526 0.47136,0.19526 0.1769002,0 0.3464002,-0.07023 0.4714002,-0.19526 0.1251,-0.12502 0.1953,-0.29459 0.1953,-0.4714 v -1.18859 c 0.8592,0.97198 1.3335,2.22457 1.3333,3.52189 2e-4,0.19606 -0.0116,0.39195 -0.0351,0.58659 -0.0211,0.17548 0.0282,0.35218 0.1372,0.49132 0.109,0.13914 0.2687,0.22936 0.4442,0.25087 0.027,0.00313 0.0542,0.00465 0.0813,0.00455 0.1628,-2.1e-4 0.3199,-0.05998 0.4416,-0.16804 0.1218,-0.10807 0.1997,-0.25694 0.2193,-0.41854 0.0302,-0.24776 0.0452,-0.49713 0.0449,-0.74672 -9e-4,-1.59079 -0.5727,-3.12842 -1.6114,-4.33333 z"
     fill="#4f5665"
     id="path1" />
</svg>
