<?xml version="1.0" encoding="UTF-8" standalone="no"?>
<svg
   width="33.599998"
   height="33.599998"
   viewBox="0 0 33.599998 33.599998"
   fill="none"
   version="1.1"
   id="svg3"
   sodipodi:docname="Twittertwitter-icon.svg"
   xmlns:inkscape="http://www.inkscape.org/namespaces/inkscape"
   xmlns:sodipodi="http://sodipodi.sourceforge.net/DTD/sodipodi-0.dtd"
   xmlns="http://www.w3.org/2000/svg"
   xmlns:svg="http://www.w3.org/2000/svg">
  <sodipodi:namedview
     id="namedview3"
     pagecolor="#ffffff"
     bordercolor="#000000"
     borderopacity="0.25"
     inkscape:showpageshadow="2"
     inkscape:pageopacity="0.0"
     inkscape:pagecheckerboard="0"
     inkscape:deskcolor="#d1d1d1" />
  <circle
     cx="16.799902"
     cy="16.7999"
     r="16.7999"
     fill="#0b132a"
     id="circle1" />
  <path
     d="M 16.8,0 C 7.5215004,0 4.3640137e-7,7.5215 4.3640137e-7,16.8 4.3640137e-7,26.0785 7.5215004,33.6 16.8,33.6 26.0785,33.6 33.6,26.0785 33.6,16.8 33.6,7.5215 26.0785,0 16.8,0 Z m 6.8338,13.762 c 0.007,0.1435 0.0087,0.287 0.0087,0.427 0,4.375 -3.3267,9.4168 -9.4132,9.4168 -1.7985,0.0029 -3.5596,-0.5136 -5.0715996,-1.4875 0.2573,0.0315 0.5215,0.0437 0.7893,0.0437 1.5504996,0 2.9767996,-0.5267 4.1089996,-1.4157 -0.69,-0.0136 -1.3586,-0.2421 -1.9126,-0.6536 -0.5539,-0.4116 -0.9657,-0.9857 -1.1779,-1.6424 0.4955,0.0942 1.006,0.0744 1.4927,-0.0578 C 11.7093,18.2411 11.0358,17.8353 10.552,17.2439 10.0681,16.6526 9.8037004,15.9121 9.8035004,15.148 V 15.1078 C 10.2497,15.3545 10.7607,15.505 11.3032,15.5225 c -0.7021,-0.4674 -1.1991,-1.1853 -1.3893996,-2.007 -0.1903,-0.8217 -0.0595,-1.6851 0.3656996,-2.4135 0.8312,1.022 1.8677,1.8581 3.0425,2.454 1.1748,0.596 2.4616,0.9387 3.7773,1.0058 -0.1673,-0.71 -0.0953,-1.4553 0.2047,-2.1202 0.3001,-0.6648 0.8113,-1.2119 1.4544,-1.5561 0.643,-0.3443 1.3818,-0.4665 2.1014,-0.3476 0.7197,0.1189 1.3798,0.4723 1.878,1.0051 0.7405,-0.1465 1.4507,-0.4182 2.1,-0.8032 -0.2469,0.7667 -0.7636,1.4178 -1.4543,1.8322 0.656,-0.079 1.2965,-0.2554 1.9005,-0.5232 -0.4436,0.6648 -1.0025,1.245 -1.6502,1.7132 z"
     fill="#ff8906"
     id="path1" />
  <defs
     id="defs3" />
</svg>
